<svg xmlns="http://www.w3.org/2000/svg" xmlns:xlink="http://www.w3.org/1999/xlink" version="1.1" width="480.0" height="480.0">
    <g transform="translate(40.0, 440.0) scale(4.0, -4.0)">
        <rect x="0" y="0" width="100" height="100" stroke="#AAA" stroke-width="1" fill="none"/>
        <g>
            <circle fill="Red" cx="17.0" cy="58.0" r="1.0"/>
            <circle fill="Red" cx="1.0" cy="63.0" r="1.0"/>
            <circle fill="Red" cx="14.0" cy="74.0" r="1.0"/>
            <circle fill="Red" cx="27.0" cy="66.0" r="1.0"/>
            <circle fill="Red" cx="1.0" cy="42.0" r="1.0"/>
            <circle fill="Red" cx="23.0" cy="58.0" r="1.0"/>
            <circle fill="Red" cx="23.0" cy="52.0" r="1.0"/>
            <circle fill="Red" cx="6.0" cy="53.0" r="1.0"/>
            <circle fill="Red" cx="28.0" cy="96.0" r="1.0"/>
            <circle fill="Red" cx="12.0" cy="39.0" r="1.0"/>
            <circle fill="Red" cx="25.0" cy="63.0" r="1.0"/>
            <circle fill="Red" cx="29.0" cy="81.0" r="1.0"/>
            <circle fill="Red" cx="20.0" cy="70.0" r="1.0"/>
            <circle fill="Red" cx="12.0" cy="67.0" r="1.0"/>
            <circle fill="Red" cx="12.0" cy="41.0" r="1.0"/>
            <circle fill="Red" cx="32.0" cy="88.0" r="1.0"/>
            <circle fill="Red" cx="27.0" cy="70.0" r="1.0"/>
            <circle fill="Red" cx="22.0" cy="76.0" r="1.0"/>
            <circle fill="Red" cx="41.0" cy="51.0" r="1.0"/>
            <circle fill="Red" cx="3.0" cy="78.0" r="1.0"/>
        </g>
        <g>
            <circle fill="Green" cx="72.0" cy="64.0" r="1.0"/>
            <circle fill="Green" cx="78.0" cy="49.0" r="1.0"/>
            <circle fill="Green" cx="75.0" cy="62.0" r="1.0"/>
            <circle fill="Green" cx="58.0" cy="56.0" r="1.0"/>
            <circle fill="Green" cx="80.0" cy="38.0" r="1.0"/>
            <circle fill="Green" cx="100.0" cy="48.0" r="1.0"/>
            <circle fill="Green" cx="69.0" cy="47.0" r="1.0"/>
            <circle fill="Green" cx="86.0" cy="46.0" r="1.0"/>
            <circle fill="Green" cx="69.0" cy="63.0" r="1.0"/>
            <circle fill="Green" cx="100.0" cy="43.0" r="1.0"/>
            <circle fill="Green" cx="63.0" cy="50.0" r="1.0"/>
            <circle fill="Green" cx="86.0" cy="54.0" r="1.0"/>
            <circle fill="Green" cx="71.0" cy="57.0" r="1.0"/>
            <circle fill="Green" cx="99.0" cy="67.0" r="1.0"/>
            <circle fill="Green" cx="85.0" cy="46.0" r="1.0"/>
            <circle fill="Green" cx="86.0" cy="45.0" r="1.0"/>
            <circle fill="Green" cx="97.0" cy="71.0" r="1.0"/>
            <circle fill="Green" cx="96.0" cy="45.0" r="1.0"/>
            <circle fill="Green" cx="100.0" cy="57.0" r="1.0"/>
        </g>
        <g>
            <circle fill="Blue" cx="4.0" cy="20.0" r="1.0"/>
            <circle fill="Blue" cx="41.0" cy="16.0" r="1.0"/>
            <circle fill="Blue" cx="46.0" cy="36.0" r="1.0"/>
            <circle fill="Blue" cx="10.0" cy="13.0" r="1.0"/>
            <circle fill="Blue" cx="38.0" cy="26.0" r="1.0"/>
            <circle fill="Blue" cx="39.0" cy="31.0" r="1.0"/>
            <circle fill="Blue" cx="32.0" cy="29.0" r="1.0"/>
            <circle fill="Blue" cx="50.0" cy="1.0" r="1.0"/>
            <circle fill="Blue" cx="43.0" cy="37.0" r="1.0"/>
            <circle fill="Blue" cx="23.0" cy="25.0" r="1.0"/>
            <circle fill="Blue" cx="17.0" cy="22.0" r="1.0"/>
            <circle fill="Blue" cx="49.0" cy="22.0" r="1.0"/>
            <circle fill="Blue" cx="46.0" cy="50.0" r="1.0"/>
            <circle fill="Blue" cx="11.0" cy="1.0" r="1.0"/>
            <circle fill="Blue" cx="47.0" cy="18.0" r="1.0"/>
            <circle fill="Blue" cx="4.0" cy="13.0" r="1.0"/>
            <circle fill="Blue" cx="23.0" cy="24.0" r="1.0"/>
            <circle fill="Blue" cx="47.0" cy="23.0" r="1.0"/>
            <circle fill="Blue" cx="37.0" cy="40.0" r="1.0"/>
            <circle fill="Blue" cx="16.0" cy="14.0" r="1.0"/>
            <circle fill="Blue" cx="41.0" cy="34.0" r="1.0"/>
            <circle fill="Blue" cx="30.0" cy="1.0" r="1.0"/>
            <circle fill="Blue" cx="52.0" cy="21.0" r="1.0"/>
        </g>
        <g>
            <circle fill="Orange" cx="67.0" cy="19.0" r="1.0"/>
            <circle fill="Orange" cx="79.0" cy="27.0" r="1.0"/>
            <circle fill="Orange" cx="63.0" cy="13.0" r="1.0"/>
            <circle fill="Orange" cx="67.0" cy="38.0" r="1.0"/>
            <circle fill="Orange" cx="73.0" cy="27.0" r="1.0"/>
            <circle fill="Orange" cx="67.0" cy="29.0" r="1.0"/>
            <circle fill="Orange" cx="58.0" cy="7.0" r="1.0"/>
            <circle fill="Orange" cx="71.0" cy="8.0" r="1.0"/>
            <circle fill="Orange" cx="78.0" cy="16.0" r="1.0"/>
            <circle fill="Orange" cx="59.0" cy="25.0" r="1.0"/>
            <circle fill="Orange" cx="77.0" cy="12.0" r="1.0"/>
            <circle fill="Orange" cx="75.0" cy="10.0" r="1.0"/>
            <circle fill="Orange" cx="69.0" cy="10.0" r="1.0"/>
            <circle fill="Orange" cx="55.0" cy="33.0" r="1.0"/>
            <circle fill="Orange" cx="67.0" cy="28.0" r="1.0"/>
            <circle fill="Orange" cx="75.0" cy="26.0" r="1.0"/>
            <circle fill="Orange" cx="71.0" cy="25.0" r="1.0"/>
            <circle fill="Orange" cx="77.0" cy="19.0" r="1.0"/>
            <circle fill="Orange" cx="91.0" cy="6.0" r="1.0"/>
            <circle fill="Orange" cx="98.0" cy="2.0" r="1.0"/>
            <circle fill="Orange" cx="70.0" cy="29.0" r="1.0"/>
        </g>
        <g>
            <circle fill="Magenta" cx="62.0" cy="77.0" r="1.0"/>
            <circle fill="Magenta" cx="93.0" cy="96.0" r="1.0"/>
            <circle fill="Magenta" cx="52.0" cy="97.0" r="1.0"/>
            <circle fill="Magenta" cx="82.0" cy="78.0" r="1.0"/>
            <circle fill="Magenta" cx="51.0" cy="89.0" r="1.0"/>
            <circle fill="Magenta" cx="91.0" cy="89.0" r="1.0"/>
            <circle fill="Magenta" cx="71.0" cy="72.0" r="1.0"/>
            <circle fill="Magenta" cx="67.0" cy="88.0" r="1.0"/>
            <circle fill="Magenta" cx="89.0" cy="74.0" r="1.0"/>
            <circle fill="Magenta" cx="93.0" cy="97.0" r="1.0"/>
            <circle fill="Magenta" cx="79.0" cy="85.0" r="1.0"/>
            <circle fill="Magenta" cx="52.0" cy="79.0" r="1.0"/>
            <circle fill="Magenta" cx="55.0" cy="86.0" r="1.0"/>
            <circle fill="Magenta" cx="87.0" cy="89.0" r="1.0"/>
            <circle fill="Magenta" cx="66.0" cy="98.0" r="1.0"/>
            <circle fill="Magenta" cx="81.0" cy="96.0" r="1.0"/>
            <circle fill="Magenta" cx="76.0" cy="89.0" r="1.0"/>
        </g>
    </g>
</svg>