<svg version="1.1" viewBox="0.0 0.0 1001.0 745.0" fill="none" stroke="none" stroke-linecap="square" stroke-miterlimit="10" width="1001" height="745" xmlns:xlink="http://www.w3.org/1999/xlink" xmlns="http://www.w3.org/2000/svg"><path fill="#ffffff" d="M0 0L1001.0 0L1001.0 745.0L0 745.0L0 0Z" fill-rule="nonzero"/><path stroke="#cccccc" stroke-width="1.0" stroke-linecap="butt" d="M204.5 157.5L204.5 653.5" fill-rule="nonzero"/><path stroke="#cccccc" stroke-width="1.0" stroke-linecap="butt" d="M343.5 157.5L343.5 653.5" fill-rule="nonzero"/><path stroke="#cccccc" stroke-width="1.0" stroke-linecap="butt" d="M481.5 157.5L481.5 653.5" fill-rule="nonzero"/><path stroke="#cccccc" stroke-width="1.0" stroke-linecap="butt" d="M620.5 157.5L620.5 653.5" fill-rule="nonzero"/><path stroke="#cccccc" stroke-width="1.0" stroke-linecap="butt" d="M759.5 157.5L759.5 653.5" fill-rule="nonzero"/><path stroke="#cccccc" stroke-width="1.0" stroke-linecap="butt" d="M898.5 157.5L898.5 653.5" fill-rule="nonzero"/><path stroke="#333333" stroke-width="1.0" stroke-linecap="butt" d="M111.5 653.5L963.5 653.5" fill-rule="nonzero"/><path stroke="#cccccc" stroke-width="1.0" stroke-linecap="butt" d="M111.5 529.5L963.5 529.5" fill-rule="nonzero"/><path stroke="#cccccc" stroke-width="1.0" stroke-linecap="butt" d="M111.5 405.5L963.5 405.5" fill-rule="nonzero"/><path stroke="#cccccc" stroke-width="1.0" stroke-linecap="butt" d="M111.5 281.5L963.5 281.5" fill-rule="nonzero"/><path stroke="#cccccc" stroke-width="1.0" stroke-linecap="butt" d="M111.5 157.5L963.5 157.5" fill-rule="nonzero"/><path stroke="#eeeeee" stroke-width="1.0" stroke-linecap="butt" d="M121.020775 637.05585L121.020775 653.05585" fill-rule="nonzero"/><path stroke="#eeeeee" stroke-width="1.0" stroke-linecap="butt" d="M176.55133 635.1221L176.55133 651.1221" fill-rule="nonzero"/><path stroke="#eeeeee" stroke-width="1.0" stroke-linecap="butt" d="M287.61246 631.8496L287.61246 647.8496" fill-rule="nonzero"/><path stroke="#eeeeee" stroke-width="1.0" stroke-linecap="butt" d="M509.7347 610.5783L509.7347 626.5783" fill-rule="nonzero"/><path stroke="#eeeeee" stroke-width="1.0" stroke-linecap="butt" d="M953.97925 377.33835L953.97925 393.33835" fill-rule="nonzero"/><path stroke="#eeeeee" stroke-width="1.0" stroke-linecap="butt" d="M121.020775 637.25415L121.020775 653.25415" fill-rule="nonzero"/><path stroke="#eeeeee" stroke-width="1.0" stroke-linecap="butt" d="M176.55133 636.3121L176.55133 652.3121" fill-rule="nonzero"/><path stroke="#eeeeee" stroke-width="1.0" stroke-linecap="butt" d="M287.61246 635.2708L287.61246 651.2708" fill-rule="nonzero"/><path stroke="#eeeeee" stroke-width="1.0" stroke-linecap="butt" d="M509.7347 631.9487L509.7347 647.9487" fill-rule="nonzero"/><path stroke="#eeeeee" stroke-width="1.0" stroke-linecap="butt" d="M953.97925 624.5112L953.97925 640.5112" fill-rule="nonzero"/><clipPath id="id_0"><path d="M111.25 157.91667L963.75 157.91667L963.75 653.75L111.25 653.75L111.25 157.91667Z" clip-rule="nonzero"/></clipPath><path stroke="#ff0000" stroke-width="2.0" stroke-linecap="butt" clip-path="url(#id_0)" d="M121.020775 653.05585L176.55133 651.1221L287.61246 647.8496L509.7347 626.5783L953.97925 393.33835" fill-rule="nonzero"/><path stroke="#6aa84f" stroke-width="2.0" stroke-linecap="butt" clip-path="url(#id_0)" d="M121.020775 653.25415L176.55133 652.3121L287.61246 651.2708L509.7347 647.9487L953.97925 640.5112" fill-rule="nonzero"/><path fill="#ff0000" clip-path="url(#id_0)" d="M127.020775 653.05585C127.020775 656.36957 124.33448 659.05585 121.020775 659.05585C117.70706 659.05585 115.020775 656.36957 115.020775 653.05585C115.020775 649.7421 117.70706 647.05585 121.020775 647.05585C124.33448 647.05585 127.020775 649.7421 127.020775 653.05585Z" fill-rule="nonzero"/><path fill="#ff0000" clip-path="url(#id_0)" d="M182.55133 651.1221C182.55133 654.4358 179.86505 657.1221 176.55133 657.1221C173.23763 657.1221 170.55133 654.4358 170.55133 651.1221C170.55133 647.80835 173.23763 645.1221 176.55133 645.1221C179.86505 645.1221 182.55133 647.80835 182.55133 651.1221Z" fill-rule="nonzero"/><path fill="#ff0000" clip-path="url(#id_0)" d="M293.61246 647.8496C293.61246 651.16327 290.92618 653.8496 287.61246 653.8496C284.29877 653.8496 281.61246 651.16327 281.61246 647.8496C281.61246 644.5359 284.29877 641.8496 287.61246 641.8496C290.92618 641.8496 293.61246 644.5359 293.61246 647.8496Z" fill-rule="nonzero"/><path fill="#ff0000" clip-path="url(#id_0)" d="M515.73474 626.5783C515.73474 629.892 513.0484 632.5783 509.7347 632.5783C506.42102 632.5783 503.7347 629.892 503.7347 626.5783C503.7347 623.26465 506.42102 620.5783 509.7347 620.5783C513.0484 620.5783 515.73474 623.26465 515.73474 626.5783Z" fill-rule="nonzero"/><path fill="#ff0000" clip-path="url(#id_0)" d="M959.97925 393.33835C959.97925 396.65204 957.2929 399.33835 953.97925 399.33835C950.6655 399.33835 947.97925 396.65204 947.97925 393.33835C947.97925 390.02463 950.6655 387.33835 953.97925 387.33835C957.2929 387.33835 959.97925 390.02463 959.97925 393.33835Z" fill-rule="nonzero"/><path fill="#6aa84f" clip-path="url(#id_0)" d="M127.020775 653.25415C127.020775 656.5679 124.33448 659.25415 121.020775 659.25415C117.70706 659.25415 115.020775 656.5679 115.020775 653.25415C115.020775 649.9404 117.70706 647.25415 121.020775 647.25415C124.33448 647.25415 127.020775 649.9404 127.020775 653.25415Z" fill-rule="nonzero"/><path fill="#6aa84f" clip-path="url(#id_0)" d="M182.55133 652.3121C182.55133 655.6258 179.86505 658.3121 176.55133 658.3121C173.23763 658.3121 170.55133 655.6258 170.55133 652.3121C170.55133 648.99835 173.23763 646.3121 176.55133 646.3121C179.86505 646.3121 182.55133 648.99835 182.55133 652.3121Z" fill-rule="nonzero"/><path fill="#6aa84f" clip-path="url(#id_0)" d="M293.61246 651.2708C293.61246 654.58453 290.92618 657.2708 287.61246 657.2708C284.29877 657.2708 281.61246 654.58453 281.61246 651.2708C281.61246 647.95715 284.29877 645.2708 287.61246 645.2708C290.92618 645.2708 293.61246 647.95715 293.61246 651.2708Z" fill-rule="nonzero"/><path fill="#6aa84f" clip-path="url(#id_0)" d="M515.73474 647.9487C515.73474 651.26245 513.0484 653.9487 509.7347 653.9487C506.42102 653.9487 503.7347 651.26245 503.7347 647.9487C503.7347 644.6351 506.42102 641.9487 509.7347 641.9487C513.0484 641.9487 515.73474 644.6351 515.73474 647.9487Z" fill-rule="nonzero"/><path fill="#6aa84f" clip-path="url(#id_0)" d="M959.97925 640.5112C959.97925 643.82495 957.2929 646.5112 953.97925 646.5112C950.6655 646.5112 947.97925 643.82495 947.97925 640.5112C947.97925 637.1976 950.6655 634.5112 953.97925 634.5112C957.2929 634.5112 959.97925 637.1976 959.97925 640.5112Z" fill-rule="nonzero"/><path stroke="#ffffff" stroke-width="3.0" stroke-linejoin="round" stroke-linecap="round" d="M118.2864 635.05585L117.208275 635.05585L117.208275 627.8371L115.020775 628.634L115.020775 627.6496L118.13015 626.4777L118.2864 626.4777L118.2864 635.05585ZM126.302025 632.1965L127.489525 632.1965L127.489525 633.0715L126.302025 633.0715L126.302025 635.05585L125.2239 635.05585L125.2239 633.0715L121.333275 633.0715L121.333275 632.43085L125.145775 626.5246L126.302025 626.5246L126.302025 632.1965ZM122.56765 632.1965L125.2239 632.1965L125.2239 628.009L125.083275 628.24335L122.56765 632.1965Z" fill-rule="nonzero"/><path fill="#ff0000" d="M118.2864 635.05585L117.208275 635.05585L117.208275 627.8371L115.020775 628.634L115.020775 627.6496L118.13015 626.4777L118.2864 626.4777L118.2864 635.05585ZM126.302025 632.1965L127.489525 632.1965L127.489525 633.0715L126.302025 633.0715L126.302025 635.05585L125.2239 635.05585L125.2239 633.0715L121.333275 633.0715L121.333275 632.43085L125.145775 626.5246L126.302025 626.5246L126.302025 632.1965ZM122.56765 632.1965L125.2239 632.1965L125.2239 628.009L125.083275 628.24335L122.56765 632.1965Z" fill-rule="nonzero"/><path stroke="#ffffff" stroke-width="3.0" stroke-linejoin="round" stroke-linecap="round" d="M170.75446 628.8408L171.19196 624.5908L175.56696 624.5908L175.56696 625.5908L172.11383 625.5908L171.8482 627.91895Q172.48883 627.54395 173.2857 627.54395Q174.44196 627.54395 175.12946 628.3252Q175.81696 629.0908 175.81696 630.4033Q175.81696 631.7158 175.0982 632.48145Q174.39508 633.2471 173.11383 633.2471Q171.98883 633.2471 171.27008 632.6221Q170.55133 631.98145 170.45758 630.8721L171.4732 630.8721Q171.58258 631.60645 172.00446 631.98145Q172.42633 632.35645 173.11383 632.35645Q173.86383 632.35645 174.30133 631.8408Q174.73883 631.3252 174.73883 630.41895Q174.73883 629.5596 174.27008 629.04395Q173.80133 628.5283 173.02008 628.5283Q172.31696 628.5283 171.9107 628.8252L171.62946 629.0596L170.75446 628.8408ZM178.83258 628.3252L179.64508 628.3252Q180.42633 628.3096 180.86383 627.91895Q181.30133 627.5283 181.30133 626.85645Q181.30133 625.35645 179.80133 625.35645Q179.0982 625.35645 178.67633 625.7627Q178.27008 626.16895 178.27008 626.8252L177.17633 626.8252Q177.17633 625.8096 177.9107 625.1377Q178.6607 624.4658 179.80133 624.4658Q181.00446 624.4658 181.69196 625.10645Q182.37946 625.7471 182.37946 626.8877Q182.37946 627.4502 182.02008 627.9658Q181.6607 628.48145 181.0357 628.7471Q181.73883 628.9658 182.11383 629.48145Q182.50446 629.9971 182.50446 630.7471Q182.50446 631.8877 181.75446 632.5752Q181.00446 633.2471 179.80133 633.2471Q178.61383 633.2471 177.8482 632.5908Q177.0982 631.9346 177.0982 630.8721L178.19196 630.8721Q178.19196 631.54395 178.62946 631.9502Q179.06696 632.35645 179.81696 632.35645Q180.5982 632.35645 181.00446 631.9502Q181.42633 631.5283 181.42633 630.7627Q181.42633 630.0283 180.9732 629.6377Q180.52008 629.23145 179.64508 629.2158L178.83258 629.2158L178.83258 628.3252Z" fill-rule="nonzero"/><path fill="#ff0000" d="M170.75446 628.8408L171.19196 624.5908L175.56696 624.5908L175.56696 625.5908L172.11383 625.5908L171.8482 627.91895Q172.48883 627.54395 173.2857 627.54395Q174.44196 627.54395 175.12946 628.3252Q175.81696 629.0908 175.81696 630.4033Q175.81696 631.7158 175.0982 632.48145Q174.39508 633.2471 173.11383 633.2471Q171.98883 633.2471 171.27008 632.6221Q170.55133 631.98145 170.45758 630.8721L171.4732 630.8721Q171.58258 631.60645 172.00446 631.98145Q172.42633 632.35645 173.11383 632.35645Q173.86383 632.35645 174.30133 631.8408Q174.73883 631.3252 174.73883 630.41895Q174.73883 629.5596 174.27008 629.04395Q173.80133 628.5283 173.02008 628.5283Q172.31696 628.5283 171.9107 628.8252L171.62946 629.0596L170.75446 628.8408ZM178.83258 628.3252L179.64508 628.3252Q180.42633 628.3096 180.86383 627.91895Q181.30133 627.5283 181.30133 626.85645Q181.30133 625.35645 179.80133 625.35645Q179.0982 625.35645 178.67633 625.7627Q178.27008 626.16895 178.27008 626.8252L177.17633 626.8252Q177.17633 625.8096 177.9107 625.1377Q178.6607 624.4658 179.80133 624.4658Q181.00446 624.4658 181.69196 625.10645Q182.37946 625.7471 182.37946 626.8877Q182.37946 627.4502 182.02008 627.9658Q181.6607 628.48145 181.0357 628.7471Q181.73883 628.9658 182.11383 629.48145Q182.50446 629.9971 182.50446 630.7471Q182.50446 631.8877 181.75446 632.5752Q181.00446 633.2471 179.80133 633.2471Q178.61383 633.2471 177.8482 632.5908Q177.0982 631.9346 177.0982 630.8721L178.19196 630.8721Q178.19196 631.54395 178.62946 631.9502Q179.06696 632.35645 179.81696 632.35645Q180.5982 632.35645 181.00446 631.9502Q181.42633 631.5283 181.42633 630.7627Q181.42633 630.0283 180.9732 629.6377Q180.52008 629.23145 179.64508 629.2158L178.83258 629.2158L178.83258 628.3252Z" fill-rule="nonzero"/><path stroke="#ffffff" stroke-width="3.0" stroke-linejoin="round" stroke-linecap="round" d="M281.37808 629.8496L280.29996 629.8496L280.29996 622.63086L278.11246 623.42773L278.11246 622.44336L281.22183 621.2715L281.37808 621.2715L281.37808 629.8496ZM288.37808 629.8496L287.29996 629.8496L287.29996 622.63086L285.11246 623.42773L285.11246 622.44336L288.22183 621.2715L288.37808 621.2715L288.37808 629.8496ZM295.97183 626.0996Q295.6437 626.50586 295.15933 626.75586Q294.69058 626.99023 294.12808 626.99023Q293.3937 626.99023 292.84683 626.63086Q292.29996 626.2715 292.00308 625.61523Q291.7062 624.94336 291.7062 624.1465Q291.7062 623.30273 292.0187 622.61523Q292.34683 621.92773 292.94058 621.56836Q293.54996 621.19336 294.34683 621.19336Q295.61246 621.19336 296.3312 622.1465Q297.06558 623.0996 297.06558 624.7246L297.06558 625.0371Q297.06558 627.5371 296.0812 628.67773Q295.09683 629.81836 293.11246 629.8496L292.8937 629.8496L292.8937 628.94336L293.12808 628.94336Q294.47183 628.9121 295.19058 628.24023Q295.90933 627.56836 295.97183 626.0996ZM294.29996 626.0996Q294.84683 626.0996 295.29996 625.7715Q295.7687 625.42773 295.98746 624.94336L295.98746 624.50586Q295.98746 623.44336 295.5187 622.7715Q295.04996 622.0996 294.34683 622.0996Q293.62808 622.0996 293.19058 622.6465Q292.7687 623.19336 292.7687 624.0996Q292.7687 624.9746 293.17496 625.5371Q293.59683 626.0996 294.29996 626.0996Z" fill-rule="nonzero"/><path fill="#ff0000" d="M281.37808 629.8496L280.29996 629.8496L280.29996 622.63086L278.11246 623.42773L278.11246 622.44336L281.22183 621.2715L281.37808 621.2715L281.37808 629.8496ZM288.37808 629.8496L287.29996 629.8496L287.29996 622.63086L285.11246 623.42773L285.11246 622.44336L288.22183 621.2715L288.37808 621.2715L288.37808 629.8496ZM295.97183 626.0996Q295.6437 626.50586 295.15933 626.75586Q294.69058 626.99023 294.12808 626.99023Q293.3937 626.99023 292.84683 626.63086Q292.29996 626.2715 292.00308 625.61523Q291.7062 624.94336 291.7062 624.1465Q291.7062 623.30273 292.0187 622.61523Q292.34683 621.92773 292.94058 621.56836Q293.54996 621.19336 294.34683 621.19336Q295.61246 621.19336 296.3312 622.1465Q297.06558 623.0996 297.06558 624.7246L297.06558 625.0371Q297.06558 627.5371 296.0812 628.67773Q295.09683 629.81836 293.11246 629.8496L292.8937 629.8496L292.8937 628.94336L293.12808 628.94336Q294.47183 628.9121 295.19058 628.24023Q295.90933 627.56836 295.97183 626.0996ZM294.29996 626.0996Q294.84683 626.0996 295.29996 625.7715Q295.7687 625.42773 295.98746 624.94336L295.98746 624.50586Q295.98746 623.44336 295.5187 622.7715Q295.04996 622.0996 294.34683 622.0996Q293.62808 622.0996 293.19058 622.6465Q292.7687 623.19336 292.7687 624.0996Q292.7687 624.9746 293.17496 625.5371Q293.59683 626.0996 294.29996 626.0996Z" fill-rule="nonzero"/><path stroke="#ffffff" stroke-width="3.0" stroke-linejoin="round" stroke-linecap="round" d="M500.43784 604.29706L500.87534 600.04706L505.25034 600.04706L505.25034 601.04706L501.7972 601.04706L501.5316 603.3752Q502.1722 603.0002 502.9691 603.0002Q504.12534 603.0002 504.81284 603.78143Q505.50034 604.54706 505.50034 605.85956Q505.50034 607.17206 504.7816 607.9377Q504.07846 608.7033 502.7972 608.7033Q501.6722 608.7033 500.95346 608.0783Q500.2347 607.4377 500.14096 606.3283L501.1566 606.3283Q501.26596 607.0627 501.68784 607.4377Q502.1097 607.8127 502.7972 607.8127Q503.5472 607.8127 503.9847 607.29706Q504.4222 606.78143 504.4222 605.8752Q504.4222 605.0158 503.95346 604.5002Q503.4847 603.98456 502.70346 603.98456Q502.00034 603.98456 501.5941 604.28143L501.31284 604.5158L500.43784 604.29706ZM511.51596 605.71893L512.7035 605.71893L512.7035 606.59393L511.51596 606.59393L511.51596 608.5783L510.43784 608.5783L510.43784 606.59393L506.5472 606.59393L506.5472 605.9533L510.3597 600.04706L511.51596 600.04706L511.51596 605.71893ZM507.7816 605.71893L510.43784 605.71893L510.43784 601.53143L510.2972 601.7658L507.7816 605.71893ZM519.12537 602.2658Q519.12537 602.90643 518.7816 603.40643Q518.43787 603.90643 517.87537 604.1877Q518.5316 604.46893 518.92224 605.03143Q519.31287 605.5783 519.31287 606.28143Q519.31287 607.3752 518.56287 608.04706Q517.8285 608.7033 516.60974 608.7033Q515.37537 608.7033 514.62537 608.04706Q513.891 607.3752 513.891 606.28143Q513.891 605.5783 514.266 605.03143Q514.641 604.46893 515.31287 604.1877Q514.75037 603.90643 514.42224 603.40643Q514.0941 602.90643 514.0941 602.2658Q514.0941 601.1877 514.7816 600.5627Q515.4691 599.92206 516.60974 599.92206Q517.73474 599.92206 518.42224 600.5627Q519.12537 601.1877 519.12537 602.2658ZM518.23474 606.2502Q518.23474 605.53143 517.7816 605.09393Q517.3285 604.6408 516.5941 604.6408Q515.85974 604.6408 515.4066 605.09393Q514.9691 605.53143 514.9691 606.2658Q514.9691 606.98456 515.4066 607.40643Q515.8441 607.8127 516.60974 607.8127Q517.35974 607.8127 517.79724 607.3908Q518.23474 606.96893 518.23474 606.2502ZM516.60974 600.8127Q515.9691 600.8127 515.56287 601.21893Q515.17224 601.60956 515.17224 602.29706Q515.17224 602.9377 515.56287 603.34393Q515.9535 603.7502 516.5941 603.7502Q517.25037 603.7502 517.641 603.34393Q518.0316 602.9377 518.0316 602.29706Q518.0316 601.6408 517.62537 601.23456Q517.2191 600.8127 516.60974 600.8127Z" fill-rule="nonzero"/><path fill="#ff0000" d="M500.43784 604.29706L500.87534 600.04706L505.25034 600.04706L505.25034 601.04706L501.7972 601.04706L501.5316 603.3752Q502.1722 603.0002 502.9691 603.0002Q504.12534 603.0002 504.81284 603.78143Q505.50034 604.54706 505.50034 605.85956Q505.50034 607.17206 504.7816 607.9377Q504.07846 608.7033 502.7972 608.7033Q501.6722 608.7033 500.95346 608.0783Q500.2347 607.4377 500.14096 606.3283L501.1566 606.3283Q501.26596 607.0627 501.68784 607.4377Q502.1097 607.8127 502.7972 607.8127Q503.5472 607.8127 503.9847 607.29706Q504.4222 606.78143 504.4222 605.8752Q504.4222 605.0158 503.95346 604.5002Q503.4847 603.98456 502.70346 603.98456Q502.00034 603.98456 501.5941 604.28143L501.31284 604.5158L500.43784 604.29706ZM511.51596 605.71893L512.7035 605.71893L512.7035 606.59393L511.51596 606.59393L511.51596 608.5783L510.43784 608.5783L510.43784 606.59393L506.5472 606.59393L506.5472 605.9533L510.3597 600.04706L511.51596 600.04706L511.51596 605.71893ZM507.7816 605.71893L510.43784 605.71893L510.43784 601.53143L510.2972 601.7658L507.7816 605.71893ZM519.12537 602.2658Q519.12537 602.90643 518.7816 603.40643Q518.43787 603.90643 517.87537 604.1877Q518.5316 604.46893 518.92224 605.03143Q519.31287 605.5783 519.31287 606.28143Q519.31287 607.3752 518.56287 608.04706Q517.8285 608.7033 516.60974 608.7033Q515.37537 608.7033 514.62537 608.04706Q513.891 607.3752 513.891 606.28143Q513.891 605.5783 514.266 605.03143Q514.641 604.46893 515.31287 604.1877Q514.75037 603.90643 514.42224 603.40643Q514.0941 602.90643 514.0941 602.2658Q514.0941 601.1877 514.7816 600.5627Q515.4691 599.92206 516.60974 599.92206Q517.73474 599.92206 518.42224 600.5627Q519.12537 601.1877 519.12537 602.2658ZM518.23474 606.2502Q518.23474 605.53143 517.7816 605.09393Q517.3285 604.6408 516.5941 604.6408Q515.85974 604.6408 515.4066 605.09393Q514.9691 605.53143 514.9691 606.2658Q514.9691 606.98456 515.4066 607.40643Q515.8441 607.8127 516.60974 607.8127Q517.35974 607.8127 517.79724 607.3908Q518.23474 606.96893 518.23474 606.2502ZM516.60974 600.8127Q515.9691 600.8127 515.56287 601.21893Q515.17224 601.60956 515.17224 602.29706Q515.17224 602.9377 515.56287 603.34393Q515.9535 603.7502 516.5941 603.7502Q517.25037 603.7502 517.641 603.34393Q518.0316 602.9377 518.0316 602.29706Q518.0316 601.6408 517.62537 601.23456Q517.2191 600.8127 516.60974 600.8127Z" fill-rule="nonzero"/><path stroke="#ffffff" stroke-width="3.0" stroke-linejoin="round" stroke-linecap="round" d="M941.1824 371.0571L941.6199 366.8071L945.9949 366.8071L945.9949 367.8071L942.54175 367.8071L942.2761 370.13522Q942.91675 369.76022 943.7136 369.76022Q944.8699 369.76022 945.5574 370.54147Q946.2449 371.3071 946.2449 372.6196Q946.2449 373.9321 945.5261 374.69772Q944.823 375.46335 943.54175 375.46335Q942.41675 375.46335 941.698 374.83835Q940.97925 374.19772 940.8855 373.08835L941.9011 373.08835Q942.0105 373.82272 942.4324 374.19772Q942.85425 374.57272 943.54175 374.57272Q944.29175 374.57272 944.72925 374.0571Q945.16675 373.54147 945.16675 372.63522Q945.16675 371.77585 944.698 371.26022Q944.22925 370.7446 943.448 370.7446Q942.7449 370.7446 942.3386 371.04147L942.0574 371.27585L941.1824 371.0571ZM953.2761 375.33835L947.6824 375.33835L947.6824 374.5571L950.6355 371.27585Q951.29175 370.52585 951.54175 370.07272Q951.79175 369.60397 951.79175 369.10397Q951.79175 368.4321 951.3855 368.01022Q950.9949 367.57272 950.3074 367.57272Q949.5105 367.57272 949.0574 368.04147Q948.60425 368.4946 948.60425 369.32272L947.5261 369.32272Q947.5261 368.13522 948.2761 367.41647Q949.04175 366.6821 950.3074 366.6821Q951.5105 366.6821 952.198 367.3071Q952.8855 367.9321 952.8855 368.97897Q952.8855 370.22897 951.2761 371.97897L948.9949 374.44772L953.2761 374.44772L953.2761 375.33835ZM955.1824 371.0571L955.6199 366.8071L959.9949 366.8071L959.9949 367.8071L956.54175 367.8071L956.2761 370.13522Q956.91675 369.76022 957.7136 369.76022Q958.8699 369.76022 959.5574 370.54147Q960.2449 371.3071 960.2449 372.6196Q960.2449 373.9321 959.5261 374.69772Q958.823 375.46335 957.54175 375.46335Q956.41675 375.46335 955.698 374.83835Q954.97925 374.19772 954.8855 373.08835L955.9011 373.08835Q956.0105 373.82272 956.4324 374.19772Q956.85425 374.57272 957.54175 374.57272Q958.29175 374.57272 958.72925 374.0571Q959.16675 373.54147 959.16675 372.63522Q959.16675 371.77585 958.698 371.26022Q958.22925 370.7446 957.448 370.7446Q956.7449 370.7446 956.3386 371.04147L956.0574 371.27585L955.1824 371.0571ZM967.2761 375.33835L961.6824 375.33835L961.6824 374.5571L964.6355 371.27585Q965.29175 370.52585 965.54175 370.07272Q965.79175 369.60397 965.79175 369.10397Q965.79175 368.4321 965.3855 368.01022Q964.9949 367.57272 964.3074 367.57272Q963.5105 367.57272 963.0574 368.04147Q962.60425 368.4946 962.60425 369.32272L961.5261 369.32272Q961.5261 368.13522 962.2761 367.41647Q963.04175 366.6821 964.3074 366.6821Q965.5105 366.6821 966.198 367.3071Q966.8855 367.9321 966.8855 368.97897Q966.8855 370.22897 965.2761 371.97897L962.9949 374.44772L967.2761 374.44772L967.2761 375.33835Z" fill-rule="nonzero"/><path fill="#ff0000" d="M941.1824 371.0571L941.6199 366.8071L945.9949 366.8071L945.9949 367.8071L942.54175 367.8071L942.2761 370.13522Q942.91675 369.76022 943.7136 369.76022Q944.8699 369.76022 945.5574 370.54147Q946.2449 371.3071 946.2449 372.6196Q946.2449 373.9321 945.5261 374.69772Q944.823 375.46335 943.54175 375.46335Q942.41675 375.46335 941.698 374.83835Q940.97925 374.19772 940.8855 373.08835L941.9011 373.08835Q942.0105 373.82272 942.4324 374.19772Q942.85425 374.57272 943.54175 374.57272Q944.29175 374.57272 944.72925 374.0571Q945.16675 373.54147 945.16675 372.63522Q945.16675 371.77585 944.698 371.26022Q944.22925 370.7446 943.448 370.7446Q942.7449 370.7446 942.3386 371.04147L942.0574 371.27585L941.1824 371.0571ZM953.2761 375.33835L947.6824 375.33835L947.6824 374.5571L950.6355 371.27585Q951.29175 370.52585 951.54175 370.07272Q951.79175 369.60397 951.79175 369.10397Q951.79175 368.4321 951.3855 368.01022Q950.9949 367.57272 950.3074 367.57272Q949.5105 367.57272 949.0574 368.04147Q948.60425 368.4946 948.60425 369.32272L947.5261 369.32272Q947.5261 368.13522 948.2761 367.41647Q949.04175 366.6821 950.3074 366.6821Q951.5105 366.6821 952.198 367.3071Q952.8855 367.9321 952.8855 368.97897Q952.8855 370.22897 951.2761 371.97897L948.9949 374.44772L953.2761 374.44772L953.2761 375.33835ZM955.1824 371.0571L955.6199 366.8071L959.9949 366.8071L959.9949 367.8071L956.54175 367.8071L956.2761 370.13522Q956.91675 369.76022 957.7136 369.76022Q958.8699 369.76022 959.5574 370.54147Q960.2449 371.3071 960.2449 372.6196Q960.2449 373.9321 959.5261 374.69772Q958.823 375.46335 957.54175 375.46335Q956.41675 375.46335 955.698 374.83835Q954.97925 374.19772 954.8855 373.08835L955.9011 373.08835Q956.0105 373.82272 956.4324 374.19772Q956.85425 374.57272 957.54175 374.57272Q958.29175 374.57272 958.72925 374.0571Q959.16675 373.54147 959.16675 372.63522Q959.16675 371.77585 958.698 371.26022Q958.22925 370.7446 957.448 370.7446Q956.7449 370.7446 956.3386 371.04147L956.0574 371.27585L955.1824 371.0571ZM967.2761 375.33835L961.6824 375.33835L961.6824 374.5571L964.6355 371.27585Q965.29175 370.52585 965.54175 370.07272Q965.79175 369.60397 965.79175 369.10397Q965.79175 368.4321 965.3855 368.01022Q964.9949 367.57272 964.3074 367.57272Q963.5105 367.57272 963.0574 368.04147Q962.60425 368.4946 962.60425 369.32272L961.5261 369.32272Q961.5261 368.13522 962.2761 367.41647Q963.04175 366.6821 964.3074 366.6821Q965.5105 366.6821 966.198 367.3071Q966.8855 367.9321 966.8855 368.97897Q966.8855 370.22897 965.2761 371.97897L962.9949 374.44772L967.2761 374.44772L967.2761 375.33835Z" fill-rule="nonzero"/><path stroke="#ffffff" stroke-width="3.0" stroke-linejoin="round" stroke-linecap="round" d="M118.2864 635.25415L117.208275 635.25415L117.208275 628.0354L115.020775 628.8323L115.020775 627.8479L118.13015 626.676L118.2864 626.676L118.2864 635.25415ZM127.083275 631.6135Q127.083275 633.5198 126.427025 634.4573Q125.7864 635.37915 124.395775 635.37915Q123.0364 635.37915 122.38015 634.4729Q121.7239 633.56665 121.69265 631.75415L121.69265 630.31665Q121.69265 628.426 122.333275 627.5198Q122.989525 626.5979 124.38015 626.5979Q125.75515 626.5979 126.4114 627.4885Q127.06765 628.3635 127.083275 630.2073L127.083275 631.6135ZM125.989525 630.12915Q125.989525 628.75415 125.5989 628.12915Q125.2239 627.4885 124.38015 627.4885Q123.552025 627.4885 123.1614 628.12915Q122.7864 628.75415 122.7864 630.051L122.7864 631.7854Q122.7864 633.1604 123.177025 633.8323Q123.583275 634.4885 124.395775 634.4885Q125.19265 634.4885 125.583275 633.8635Q125.9739 633.2385 125.989525 631.9104L125.989525 630.12915Z" fill-rule="nonzero"/><path fill="#6aa84f" d="M118.2864 635.25415L117.208275 635.25415L117.208275 628.0354L115.020775 628.8323L115.020775 627.8479L118.13015 626.676L118.2864 626.676L118.2864 635.25415ZM127.083275 631.6135Q127.083275 633.5198 126.427025 634.4573Q125.7864 635.37915 124.395775 635.37915Q123.0364 635.37915 122.38015 634.4729Q121.7239 633.56665 121.69265 631.75415L121.69265 630.31665Q121.69265 628.426 122.333275 627.5198Q122.989525 626.5979 124.38015 626.5979Q125.75515 626.5979 126.4114 627.4885Q127.06765 628.3635 127.083275 630.2073L127.083275 631.6135ZM125.989525 630.12915Q125.989525 628.75415 125.5989 628.12915Q125.2239 627.4885 124.38015 627.4885Q123.552025 627.4885 123.1614 628.12915Q122.7864 628.75415 122.7864 630.051L122.7864 631.7854Q122.7864 633.1604 123.177025 633.8323Q123.583275 634.4885 124.395775 634.4885Q125.19265 634.4885 125.583275 633.8635Q125.9739 633.2385 125.989525 631.9104L125.989525 630.12915Z" fill-rule="nonzero"/><path stroke="#ffffff" stroke-width="3.0" stroke-linejoin="round" stroke-linecap="round" d="M175.8482 634.3121L170.25446 634.3121L170.25446 633.5308L173.20758 630.2496Q173.86383 629.4996 174.11383 629.04645Q174.36383 628.5777 174.36383 628.0777Q174.36383 627.4058 173.95758 626.98395Q173.56696 626.54645 172.87946 626.54645Q172.08258 626.54645 171.62946 627.0152Q171.17633 627.4683 171.17633 628.29645L170.0982 628.29645Q170.0982 627.10895 170.8482 626.3902Q171.61383 625.6558 172.87946 625.6558Q174.08258 625.6558 174.77008 626.2808Q175.45758 626.9058 175.45758 627.9527Q175.45758 629.2027 173.8482 630.9527L171.56696 633.42145L175.8482 633.42145L175.8482 634.3121ZM181.4107 630.5621Q181.08258 630.9683 180.5982 631.2183Q180.12946 631.4527 179.56696 631.4527Q178.83258 631.4527 178.2857 631.0933Q177.73883 630.73395 177.44196 630.0777Q177.14508 629.4058 177.14508 628.60895Q177.14508 627.7652 177.45758 627.0777Q177.7857 626.3902 178.37946 626.0308Q178.98883 625.6558 179.7857 625.6558Q181.05133 625.6558 181.77008 626.60895Q182.50446 627.5621 182.50446 629.1871L182.50446 629.4996Q182.50446 631.9996 181.52008 633.1402Q180.5357 634.2808 178.55133 634.3121L178.33258 634.3121L178.33258 633.4058L178.56696 633.4058Q179.9107 633.3746 180.62946 632.7027Q181.3482 632.0308 181.4107 630.5621ZM179.73883 630.5621Q180.2857 630.5621 180.73883 630.23395Q181.20758 629.8902 181.42633 629.4058L181.42633 628.9683Q181.42633 627.9058 180.95758 627.23395Q180.48883 626.5621 179.7857 626.5621Q179.06696 626.5621 178.62946 627.10895Q178.20758 627.6558 178.20758 628.5621Q178.20758 629.4371 178.61383 629.9996Q179.0357 630.5621 179.73883 630.5621Z" fill-rule="nonzero"/><path fill="#6aa84f" d="M175.8482 634.3121L170.25446 634.3121L170.25446 633.5308L173.20758 630.2496Q173.86383 629.4996 174.11383 629.04645Q174.36383 628.5777 174.36383 628.0777Q174.36383 627.4058 173.95758 626.98395Q173.56696 626.54645 172.87946 626.54645Q172.08258 626.54645 171.62946 627.0152Q171.17633 627.4683 171.17633 628.29645L170.0982 628.29645Q170.0982 627.10895 170.8482 626.3902Q171.61383 625.6558 172.87946 625.6558Q174.08258 625.6558 174.77008 626.2808Q175.45758 626.9058 175.45758 627.9527Q175.45758 629.2027 173.8482 630.9527L171.56696 633.42145L175.8482 633.42145L175.8482 634.3121ZM181.4107 630.5621Q181.08258 630.9683 180.5982 631.2183Q180.12946 631.4527 179.56696 631.4527Q178.83258 631.4527 178.2857 631.0933Q177.73883 630.73395 177.44196 630.0777Q177.14508 629.4058 177.14508 628.60895Q177.14508 627.7652 177.45758 627.0777Q177.7857 626.3902 178.37946 626.0308Q178.98883 625.6558 179.7857 625.6558Q181.05133 625.6558 181.77008 626.60895Q182.50446 627.5621 182.50446 629.1871L182.50446 629.4996Q182.50446 631.9996 181.52008 633.1402Q180.5357 634.2808 178.55133 634.3121L178.33258 634.3121L178.33258 633.4058L178.56696 633.4058Q179.9107 633.3746 180.62946 632.7027Q181.3482 632.0308 181.4107 630.5621ZM179.73883 630.5621Q180.2857 630.5621 180.73883 630.23395Q181.20758 629.8902 181.42633 629.4058L181.42633 628.9683Q181.42633 627.9058 180.95758 627.23395Q180.48883 626.5621 179.7857 626.5621Q179.06696 626.5621 178.62946 627.10895Q178.20758 627.6558 178.20758 628.5621Q178.20758 629.4371 178.61383 629.9996Q179.0357 630.5621 179.73883 630.5621Z" fill-rule="nonzero"/><path stroke="#ffffff" stroke-width="3.0" stroke-linejoin="round" stroke-linecap="round" d="M281.81558 628.98956L282.25308 624.73956L286.62808 624.73956L286.62808 625.73956L283.17496 625.73956L282.90933 628.0677Q283.54996 627.6927 284.34683 627.6927Q285.50308 627.6927 286.19058 628.47394Q286.87808 629.23956 286.87808 630.55206Q286.87808 631.86456 286.15933 632.6302Q285.4562 633.3958 284.17496 633.3958Q283.04996 633.3958 282.3312 632.7708Q281.61246 632.1302 281.5187 631.0208L282.53433 631.0208Q282.6437 631.7552 283.06558 632.1302Q283.48746 632.5052 284.17496 632.5052Q284.92496 632.5052 285.36246 631.98956Q285.79996 631.47394 285.79996 630.5677Q285.79996 629.7083 285.3312 629.1927Q284.86246 628.67706 284.0812 628.67706Q283.37808 628.67706 282.97183 628.97394L282.69058 629.2083L281.81558 628.98956ZM293.67496 629.6302Q293.67496 631.53644 293.0187 632.47394Q292.37808 633.3958 290.98746 633.3958Q289.62808 633.3958 288.97183 632.48956Q288.31558 631.5833 288.28433 629.7708L288.28433 628.3333Q288.28433 626.4427 288.92496 625.53644Q289.5812 624.61456 290.97183 624.61456Q292.34683 624.61456 293.00308 625.5052Q293.65933 626.3802 293.67496 628.22394L293.67496 629.6302ZM292.5812 628.1458Q292.5812 626.7708 292.19058 626.1458Q291.81558 625.5052 290.97183 625.5052Q290.1437 625.5052 289.75308 626.1458Q289.37808 626.7708 289.37808 628.0677L289.37808 629.80206Q289.37808 631.17706 289.7687 631.84894Q290.17496 632.5052 290.98746 632.5052Q291.78433 632.5052 292.17496 631.8802Q292.56558 631.2552 292.5812 629.92706L292.5812 628.1458Z" fill-rule="nonzero"/><path fill="#6aa84f" d="M281.81558 628.98956L282.25308 624.73956L286.62808 624.73956L286.62808 625.73956L283.17496 625.73956L282.90933 628.0677Q283.54996 627.6927 284.34683 627.6927Q285.50308 627.6927 286.19058 628.47394Q286.87808 629.23956 286.87808 630.55206Q286.87808 631.86456 286.15933 632.6302Q285.4562 633.3958 284.17496 633.3958Q283.04996 633.3958 282.3312 632.7708Q281.61246 632.1302 281.5187 631.0208L282.53433 631.0208Q282.6437 631.7552 283.06558 632.1302Q283.48746 632.5052 284.17496 632.5052Q284.92496 632.5052 285.36246 631.98956Q285.79996 631.47394 285.79996 630.5677Q285.79996 629.7083 285.3312 629.1927Q284.86246 628.67706 284.0812 628.67706Q283.37808 628.67706 282.97183 628.97394L282.69058 629.2083L281.81558 628.98956ZM293.67496 629.6302Q293.67496 631.53644 293.0187 632.47394Q292.37808 633.3958 290.98746 633.3958Q289.62808 633.3958 288.97183 632.48956Q288.31558 631.5833 288.28433 629.7708L288.28433 628.3333Q288.28433 626.4427 288.92496 625.53644Q289.5812 624.61456 290.97183 624.61456Q292.34683 624.61456 293.00308 625.5052Q293.65933 626.3802 293.67496 628.22394L293.67496 629.6302ZM292.5812 628.1458Q292.5812 626.7708 292.19058 626.1458Q291.81558 625.5052 290.97183 625.5052Q290.1437 625.5052 289.75308 626.1458Q289.37808 626.7708 289.37808 628.0677L289.37808 629.80206Q289.37808 631.17706 289.7687 631.84894Q290.17496 632.5052 290.98746 632.5052Q291.78433 632.5052 292.17496 631.8802Q292.56558 631.2552 292.5812 629.92706L292.5812 628.1458Z" fill-rule="nonzero"/><path stroke="#ffffff" stroke-width="3.0" stroke-linejoin="round" stroke-linecap="round" d="M503.50034 629.9487L502.4222 629.9487L502.4222 622.73L500.2347 623.52686L500.2347 622.5425L503.3441 621.3706L503.50034 621.3706L503.50034 629.9487ZM510.50034 629.9487L509.4222 629.9487L509.4222 622.73L507.2347 623.52686L507.2347 622.5425L510.3441 621.3706L510.50034 621.3706L510.50034 629.9487ZM519.4535 622.02686L515.92224 629.9487L514.7816 629.9487L518.29724 622.3081L513.68787 622.3081L513.68787 621.4175L519.4535 621.4175L519.4535 622.02686Z" fill-rule="nonzero"/><path fill="#6aa84f" d="M503.50034 629.9487L502.4222 629.9487L502.4222 622.73L500.2347 623.52686L500.2347 622.5425L503.3441 621.3706L503.50034 621.3706L503.50034 629.9487ZM510.50034 629.9487L509.4222 629.9487L509.4222 622.73L507.2347 623.52686L507.2347 622.5425L510.3441 621.3706L510.50034 621.3706L510.50034 629.9487ZM519.4535 622.02686L515.92224 629.9487L514.7816 629.9487L518.29724 622.3081L513.68787 622.3081L513.68787 621.4175L519.4535 621.4175L519.4535 622.02686Z" fill-rule="nonzero"/><path stroke="#ffffff" stroke-width="3.0" stroke-linejoin="round" stroke-linecap="round" d="M949.7761 622.5112L944.1824 622.5112L944.1824 621.73L947.1355 618.4487Q947.79175 617.6987 948.04175 617.2456Q948.29175 616.77686 948.29175 616.27686Q948.29175 615.605 947.8855 615.1831Q947.4949 614.7456 946.8074 614.7456Q946.0105 614.7456 945.5574 615.21436Q945.10425 615.6675 945.10425 616.4956L944.0261 616.4956Q944.0261 615.3081 944.7761 614.58936Q945.54175 613.855 946.8074 613.855Q948.0105 613.855 948.698 614.48Q949.3855 615.105 949.3855 616.15186Q949.3855 617.40186 947.7761 619.15186L945.4949 621.6206L949.7761 621.6206L949.7761 622.5112ZM955.448 613.98L955.448 614.8862L955.2449 614.8862Q953.97925 614.9175 953.22925 615.65186Q952.47925 616.3706 952.35425 617.6831Q953.04175 616.9175 954.198 616.9175Q955.3074 616.9175 955.97925 617.6987Q956.6511 618.48 956.6511 619.73Q956.6511 621.0425 955.9324 621.83936Q955.2136 622.6362 953.9949 622.6362Q952.7761 622.6362 952.0105 621.6987Q951.2605 620.7456 951.2605 619.2612L951.2605 618.855Q951.2605 616.4956 952.2605 615.2456Q953.2605 613.9956 955.2449 613.98L955.448 613.98ZM954.0261 617.8237Q953.4636 617.8237 952.9949 618.15186Q952.5261 618.48 952.3386 618.9956L952.3386 619.3862Q952.3386 620.4487 952.8074 621.08936Q953.29175 621.73 953.9949 621.73Q954.72925 621.73 955.1511 621.1987Q955.573 620.65186 955.573 619.77686Q955.573 618.90186 955.1511 618.3706Q954.72925 617.8237 954.0261 617.8237ZM963.698 614.58936L960.16675 622.5112L959.0261 622.5112L962.54175 614.8706L957.9324 614.8706L957.9324 613.98L963.698 613.98L963.698 614.58936Z" fill-rule="nonzero"/><path fill="#6aa84f" d="M949.7761 622.5112L944.1824 622.5112L944.1824 621.73L947.1355 618.4487Q947.79175 617.6987 948.04175 617.2456Q948.29175 616.77686 948.29175 616.27686Q948.29175 615.605 947.8855 615.1831Q947.4949 614.7456 946.8074 614.7456Q946.0105 614.7456 945.5574 615.21436Q945.10425 615.6675 945.10425 616.4956L944.0261 616.4956Q944.0261 615.3081 944.7761 614.58936Q945.54175 613.855 946.8074 613.855Q948.0105 613.855 948.698 614.48Q949.3855 615.105 949.3855 616.15186Q949.3855 617.40186 947.7761 619.15186L945.4949 621.6206L949.7761 621.6206L949.7761 622.5112ZM955.448 613.98L955.448 614.8862L955.2449 614.8862Q953.97925 614.9175 953.22925 615.65186Q952.47925 616.3706 952.35425 617.6831Q953.04175 616.9175 954.198 616.9175Q955.3074 616.9175 955.97925 617.6987Q956.6511 618.48 956.6511 619.73Q956.6511 621.0425 955.9324 621.83936Q955.2136 622.6362 953.9949 622.6362Q952.7761 622.6362 952.0105 621.6987Q951.2605 620.7456 951.2605 619.2612L951.2605 618.855Q951.2605 616.4956 952.2605 615.2456Q953.2605 613.9956 955.2449 613.98L955.448 613.98ZM954.0261 617.8237Q953.4636 617.8237 952.9949 618.15186Q952.5261 618.48 952.3386 618.9956L952.3386 619.3862Q952.3386 620.4487 952.8074 621.08936Q953.29175 621.73 953.9949 621.73Q954.72925 621.73 955.1511 621.1987Q955.573 620.65186 955.573 619.77686Q955.573 618.90186 955.1511 618.3706Q954.72925 617.8237 954.0261 617.8237ZM963.698 614.58936L960.16675 622.5112L959.0261 622.5112L962.54175 614.8706L957.9324 614.8706L957.9324 613.98L963.698 613.98L963.698 614.58936Z" fill-rule="nonzero"/><path fill="#424242" d="M504.60938 701.40625L504.60938 704.75L503.48438 704.75L503.48438 696.21875L506.64062 696.21875Q508.03125 696.21875 508.82812 696.9375Q509.625 697.6406 509.625 698.8281Q509.625 700.0625 508.84375 700.7344Q508.07812 701.40625 506.625 701.40625L504.60938 701.40625ZM504.60938 700.4844L506.64062 700.4844Q507.54688 700.4844 508.01562 700.0625Q508.5 699.6406 508.5 698.84375Q508.5 698.0781 508.01562 697.625Q507.54688 697.15625 506.70312 697.1406L504.60938 697.1406L504.60938 700.4844ZM514.3906 699.375Q514.1406 699.34375 513.8594 699.34375Q512.78125 699.34375 512.40625 700.25L512.40625 704.75L511.32812 704.75L511.32812 698.40625L512.375 698.40625L512.3906 699.1406Q512.9219 698.2969 513.90625 698.2969Q514.21875 698.2969 514.3906 698.375L514.3906 699.375ZM515.03125 701.5156Q515.03125 700.59375 515.3906 699.84375Q515.7656 699.09375 516.4219 698.7031Q517.0781 698.2969 517.90625 698.2969Q519.2031 698.2969 520.0 699.1875Q520.8125 700.0781 520.8125 701.5781L520.8125 701.65625Q520.8125 702.5781 520.4531 703.3125Q520.09375 704.0469 519.4375 704.46875Q518.78125 704.875 517.9219 704.875Q516.6406 704.875 515.8281 703.9844Q515.03125 703.0781 515.03125 701.59375L515.03125 701.5156ZM516.125 701.65625Q516.125 702.7031 516.6094 703.34375Q517.1094 703.9844 517.9219 703.9844Q518.75 703.9844 519.2344 703.34375Q519.71875 702.6875 519.71875 701.5156Q519.71875 700.4844 519.21875 699.84375Q518.7344 699.1875 517.90625 699.1875Q517.1094 699.1875 516.6094 699.8281Q516.125 700.4531 516.125 701.65625ZM527.6875 701.65625Q527.6875 703.1094 527.0156 704.0Q526.3594 704.875 525.2344 704.875Q524.03125 704.875 523.375 704.0156L523.3125 704.75L522.3281 704.75L522.3281 695.75L523.40625 695.75L523.40625 699.1094Q524.0625 698.2969 525.21875 698.2969Q526.375 698.2969 527.03125 699.1719Q527.6875 700.03125 527.6875 701.5625L527.6875 701.65625ZM526.6094 701.53125Q526.6094 700.4219 526.1719 699.8281Q525.75 699.21875 524.9531 699.21875Q523.875 699.21875 523.40625 700.2031L523.40625 702.9531Q523.90625 703.9531 524.9531 703.9531Q525.7344 703.9531 526.1719 703.34375Q526.6094 702.7344 526.6094 701.53125ZM530.5 704.75L529.4219 704.75L529.4219 695.75L530.5 695.75L530.5 704.75ZM534.9531 704.875Q533.65625 704.875 532.84375 704.03125Q532.0469 703.1719 532.0469 701.75L532.0469 701.5625Q532.0469 700.6094 532.40625 699.875Q532.7656 699.125 533.40625 698.71875Q534.0625 698.2969 534.8125 698.2969Q536.0469 698.2969 536.7344 699.1094Q537.4219 699.9219 537.4219 701.4375L537.4219 701.8906L533.125 701.8906Q533.15625 702.8281 533.6719 703.40625Q534.2031 703.9844 535.0156 703.9844Q535.5781 703.9844 535.96875 703.75Q536.375 703.5156 536.6875 703.125L537.34375 703.6406Q536.5469 704.875 534.9531 704.875ZM534.8125 699.1875Q534.15625 699.1875 533.7031 699.6719Q533.2656 700.1406 533.1719 701.0L536.34375 701.0L536.34375 700.9219Q536.2969 700.09375 535.8906 699.6406Q535.5 699.1875 534.8125 699.1875ZM539.34375 698.40625L539.375 699.1094Q540.0625 698.2969 541.25 698.2969Q542.5781 698.2969 543.0625 699.3125Q543.375 698.8594 543.875 698.5781Q544.3906 698.2969 545.0781 698.2969Q547.1719 698.2969 547.2031 700.5L547.2031 704.75L546.125 704.75L546.125 700.5625Q546.125 699.8906 545.8125 699.5625Q545.5 699.21875 544.7656 699.21875Q544.15625 699.21875 543.75 699.5781Q543.3594 699.9375 543.2969 700.5469L543.2969 704.75L542.21875 704.75L542.21875 700.59375Q542.21875 699.21875 540.8594 699.21875Q539.7969 699.21875 539.40625 700.125L539.40625 704.75L538.3125 704.75L538.3125 698.40625L539.34375 698.40625ZM556.0156 703.0625Q556.0156 702.625 555.6719 702.3906Q555.34375 702.1406 554.5156 701.96875Q553.7031 701.7969 553.21875 701.5469Q552.7344 701.2969 552.5 700.96875Q552.28125 700.625 552.28125 700.15625Q552.28125 699.375 552.9375 698.84375Q553.59375 698.2969 554.625 698.2969Q555.7031 698.2969 556.3594 698.8594Q557.03125 699.40625 557.03125 700.2656L555.9531 700.2656Q555.9531 699.8281 555.5625 699.5156Q555.1875 699.1875 554.625 699.1875Q554.03125 699.1875 553.6875 699.4531Q553.3594 699.7031 553.3594 700.1094Q553.3594 700.5 553.6719 700.7031Q553.9844 700.90625 554.7969 701.09375Q555.6094 701.2656 556.1094 701.5156Q556.6094 701.7656 556.84375 702.125Q557.09375 702.4844 557.09375 702.9844Q557.09375 703.84375 556.40625 704.3594Q555.7344 704.875 554.65625 704.875Q553.8906 704.875 553.2969 704.6094Q552.71875 704.3281 552.3906 703.84375Q552.0625 703.3594 552.0625 702.7969L553.1406 702.7969Q553.1719 703.34375 553.5781 703.6719Q553.9844 703.9844 554.65625 703.9844Q555.2656 703.9844 555.6406 703.7344Q556.0156 703.4844 556.0156 703.0625ZM559.5 704.75L558.4219 704.75L558.4219 698.40625L559.5 698.40625L559.5 704.75ZM558.3281 696.7344Q558.3281 696.46875 558.4844 696.28125Q558.65625 696.09375 558.96875 696.09375Q559.28125 696.09375 559.4375 696.28125Q559.6094 696.46875 559.6094 696.7344Q559.6094 696.9844 559.4375 697.1719Q559.28125 697.34375 558.96875 697.34375Q558.65625 697.34375 558.4844 697.1719Q558.3281 696.9844 558.3281 696.7344ZM562.34375 703.8594L566.0469 703.8594L566.0469 704.75L561.0156 704.75L561.0156 703.9531L564.5156 699.3125L561.0625 699.3125L561.0625 698.40625L565.875 698.40625L565.875 699.1719L562.34375 703.8594ZM569.9531 704.875Q568.65625 704.875 567.84375 704.03125Q567.0469 703.1719 567.0469 701.75L567.0469 701.5625Q567.0469 700.6094 567.40625 699.875Q567.7656 699.125 568.40625 698.71875Q569.0625 698.2969 569.8125 698.2969Q571.0469 698.2969 571.7344 699.1094Q572.4219 699.9219 572.4219 701.4375L572.4219 701.8906L568.125 701.8906Q568.15625 702.8281 568.6719 703.40625Q569.2031 703.9844 570.0156 703.9844Q570.5781 703.9844 570.96875 703.75Q571.375 703.5156 571.6875 703.125L572.34375 703.6406Q571.5469 704.875 569.9531 704.875ZM569.8125 699.1875Q569.15625 699.1875 568.7031 699.6719Q568.2656 700.1406 568.1719 701.0L571.34375 701.0L571.34375 700.9219Q571.2969 700.09375 570.8906 699.6406Q570.5 699.1875 569.8125 699.1875Z" fill-rule="nonzero"/><path fill="#424242" d="M45.3125 459.7708L45.3125 463.47394L48.328125 463.47394L48.328125 459.17706L49.25 459.17706L49.25 464.59894L40.71875 464.59894L40.71875 459.22394L41.640625 459.22394L41.640625 463.47394L44.390625 463.47394L44.390625 459.7708L45.3125 459.7708ZM45.21875 455.6302L42.90625 454.22394L42.90625 452.9583L46.046875 455.03644L49.25 452.8958L49.25 454.1458L46.875 455.61456L49.25 457.0833L49.25 458.34894L46.046875 456.2083L42.90625 458.2708L42.90625 457.0208L45.21875 455.6302ZM49.375 449.1302Q49.375 450.42706 48.53125 451.23956Q47.671875 452.03644 46.25 452.03644L46.0625 452.03644Q45.109375 452.03644 44.375 451.67706Q43.625 451.3177 43.21875 450.67706Q42.796875 450.0208 42.796875 449.2708Q42.796875 448.03644 43.609375 447.34894Q44.421875 446.66144 45.9375 446.66144L46.390625 446.66144L46.390625 450.9583Q47.328125 450.92706 47.90625 450.41144Q48.484375 449.8802 48.484375 449.0677Q48.484375 448.5052 48.25 448.11456Q48.015625 447.7083 47.625 447.3958L48.140625 446.73956Q49.375 447.53644 49.375 449.1302ZM43.6875 449.2708Q43.6875 449.92706 44.171875 450.3802Q44.640625 450.8177 45.5 450.91144L45.5 447.73956L45.421875 447.73956Q44.59375 447.78644 44.140625 448.1927Q43.6875 448.5833 43.6875 449.2708ZM48.484375 443.22394Q48.484375 442.6458 48.140625 442.2083Q47.78125 441.7708 47.25 441.72394L47.25 440.6927Q47.796875 440.72394 48.296875 441.0833Q48.78125 441.42706 49.078125 442.0052Q49.375 442.5677 49.375 443.22394Q49.375 444.5208 48.515625 445.28644Q47.640625 446.03644 46.140625 446.03644L45.953125 446.03644Q45.03125 446.03644 44.3125 445.7083Q43.59375 445.36456 43.203125 444.73956Q42.796875 444.09894 42.796875 443.22394Q42.796875 442.16144 43.4375 441.4583Q44.0625 440.73956 45.09375 440.6927L45.09375 441.72394Q44.46875 441.7708 44.078125 442.1927Q43.6875 442.61456 43.6875 443.22394Q43.6875 444.05206 44.28125 444.5052Q44.875 444.9583 46.0 444.9583L46.203125 444.9583Q47.296875 444.9583 47.890625 444.5052Q48.484375 444.05206 48.484375 443.22394ZM48.625 435.84894Q49.375 436.47394 49.375 437.7083Q49.375 438.72394 48.78125 439.2552Q48.1875 439.78644 47.03125 439.78644L42.90625 439.78644L42.90625 438.7083L47.0 438.7083Q48.453125 438.7083 48.453125 437.53644Q48.453125 436.28644 47.515625 435.8802L42.90625 435.8802L42.90625 434.78644L49.25 434.78644L49.25 435.8177L48.625 435.84894ZM41.375 431.28644L42.90625 431.28644L42.90625 430.11456L43.75 430.11456L43.75 431.28644L47.671875 431.28644Q48.0625 431.28644 48.25 431.1302Q48.4375 430.97394 48.4375 430.59894Q48.4375 430.41144 48.375 430.0833L49.25 430.0833Q49.375 430.5052 49.375 430.91144Q49.375 431.6302 48.9375 432.0052Q48.484375 432.3802 47.671875 432.3802L43.75 432.3802L43.75 433.53644L42.90625 433.53644L42.90625 432.3802L41.375 432.3802L41.375 431.28644ZM49.25 427.5833L49.25 428.66144L42.90625 428.66144L42.90625 427.5833L49.25 427.5833ZM41.234375 428.7552Q40.96875 428.7552 40.78125 428.59894Q40.59375 428.42706 40.59375 428.11456Q40.59375 427.80206 40.78125 427.6458Q40.96875 427.47394 41.234375 427.47394Q41.484375 427.47394 41.671875 427.6458Q41.84375 427.80206 41.84375 428.11456Q41.84375 428.42706 41.671875 428.59894Q41.484375 428.7552 41.234375 428.7552ZM46.015625 426.05206Q45.09375 426.05206 44.34375 425.6927Q43.59375 425.3177 43.203125 424.66144Q42.796875 424.0052 42.796875 423.17706Q42.796875 421.8802 43.6875 421.0833Q44.578125 420.2708 46.078125 420.2708L46.15625 420.2708Q47.078125 420.2708 47.8125 420.6302Q48.546875 420.98956 48.96875 421.6458Q49.375 422.30206 49.375 423.16144Q49.375 424.4427 48.484375 425.2552Q47.578125 426.05206 46.09375 426.05206L46.015625 426.05206ZM46.15625 424.9583Q47.203125 424.9583 47.84375 424.47394Q48.484375 423.97394 48.484375 423.16144Q48.484375 422.3333 47.84375 421.84894Q47.1875 421.36456 46.015625 421.36456Q44.984375 421.36456 44.34375 421.86456Q43.6875 422.34894 43.6875 423.17706Q43.6875 423.97394 44.328125 424.47394Q44.953125 424.9583 46.15625 424.9583ZM42.90625 417.73956L43.703125 417.7083Q42.796875 416.97394 42.796875 415.80206Q42.796875 413.78644 45.0625 413.7708L49.25 413.7708L49.25 414.86456L45.046875 414.86456Q44.375 414.86456 44.046875 415.17706Q43.71875 415.47394 43.71875 416.1302Q43.71875 416.66144 44.0 417.0677Q44.28125 417.4583 44.734375 417.67706L49.25 417.67706L49.25 418.7552L42.90625 418.7552L42.90625 417.73956ZM41.375 407.28644L42.90625 407.28644L42.90625 406.11456L43.75 406.11456L43.75 407.28644L47.671875 407.28644Q48.0625 407.28644 48.25 407.1302Q48.4375 406.97394 48.4375 406.59894Q48.4375 406.41144 48.375 406.0833L49.25 406.0833Q49.375 406.5052 49.375 406.91144Q49.375 407.6302 48.9375 408.0052Q48.484375 408.3802 47.671875 408.3802L43.75 408.3802L43.75 409.53644L42.90625 409.53644L42.90625 408.3802L41.375 408.3802L41.375 407.28644ZM49.25 403.5833L49.25 404.66144L42.90625 404.66144L42.90625 403.5833L49.25 403.5833ZM41.234375 404.7552Q40.96875 404.7552 40.78125 404.59894Q40.59375 404.42706 40.59375 404.11456Q40.59375 403.80206 40.78125 403.6458Q40.96875 403.47394 41.234375 403.47394Q41.484375 403.47394 41.671875 403.6458Q41.84375 403.80206 41.84375 404.11456Q41.84375 404.42706 41.671875 404.59894Q41.484375 404.7552 41.234375 404.7552ZM42.90625 400.73956L43.609375 400.7083Q42.796875 400.0208 42.796875 398.8333Q42.796875 397.5052 43.8125 397.0208Q43.359375 396.7083 43.078125 396.2083Q42.796875 395.6927 42.796875 395.0052Q42.796875 392.91144 45.0 392.8802L49.25 392.8802L49.25 393.9583L45.0625 393.9583Q44.390625 393.9583 44.0625 394.2708Q43.71875 394.5833 43.71875 395.3177Q43.71875 395.92706 44.078125 396.3333Q44.4375 396.72394 45.046875 396.78644L49.25 396.78644L49.25 397.86456L45.09375 397.86456Q43.71875 397.86456 43.71875 399.22394Q43.71875 400.28644 44.625 400.67706L49.25 400.67706L49.25 401.7708L42.90625 401.7708L42.90625 400.73956ZM49.375 388.1302Q49.375 389.42706 48.53125 390.23956Q47.671875 391.03644 46.25 391.03644L46.0625 391.03644Q45.109375 391.03644 44.375 390.67706Q43.625 390.3177 43.21875 389.67706Q42.796875 389.0208 42.796875 388.2708Q42.796875 387.03644 43.609375 386.34894Q44.421875 385.66144 45.9375 385.66144L46.390625 385.66144L46.390625 389.9583Q47.328125 389.92706 47.90625 389.41144Q48.484375 388.8802 48.484375 388.0677Q48.484375 387.5052 48.25 387.11456Q48.015625 386.7083 47.625 386.3958L48.140625 385.73956Q49.375 386.53644 49.375 388.1302ZM43.6875 388.2708Q43.6875 388.92706 44.171875 389.3802Q44.640625 389.8177 45.5 389.91144L45.5 386.73956L45.421875 386.73956Q44.59375 386.78644 44.140625 387.1927Q43.6875 387.5833 43.6875 388.2708ZM40.390625 379.5208L40.390625 380.6302L50.1875 380.6302L50.1875 379.5208L51.078125 379.5208L51.078125 381.72394L39.5 381.72394L39.5 379.5208L40.390625 379.5208ZM42.90625 377.73956L43.609375 377.7083Q42.796875 377.0208 42.796875 375.8333Q42.796875 374.5052 43.8125 374.0208Q43.359375 373.7083 43.078125 373.2083Q42.796875 372.6927 42.796875 372.0052Q42.796875 369.91144 45.0 369.8802L49.25 369.8802L49.25 370.9583L45.0625 370.9583Q44.390625 370.9583 44.0625 371.2708Q43.71875 371.5833 43.71875 372.3177Q43.71875 372.92706 44.078125 373.3333Q44.4375 373.72394 45.046875 373.78644L49.25 373.78644L49.25 374.86456L45.09375 374.86456Q43.71875 374.86456 43.71875 376.22394Q43.71875 377.28644 44.625 377.67706L49.25 377.67706L49.25 378.7708L42.90625 378.7708L42.90625 377.73956ZM47.5625 364.0677Q47.125 364.0677 46.890625 364.41144Q46.640625 364.73956 46.46875 365.5677Q46.296875 366.3802 46.046875 366.86456Q45.796875 367.34894 45.46875 367.5833Q45.125 367.80206 44.65625 367.80206Q43.875 367.80206 43.34375 367.1458Q42.796875 366.48956 42.796875 365.4583Q42.796875 364.3802 43.359375 363.72394Q43.90625 363.05206 44.765625 363.05206L44.765625 364.1302Q44.328125 364.1302 44.015625 364.5208Q43.6875 364.8958 43.6875 365.4583Q43.6875 366.05206 43.953125 366.3958Q44.203125 366.72394 44.609375 366.72394Q45.0 366.72394 45.203125 366.41144Q45.40625 366.09894 45.59375 365.28644Q45.765625 364.47394 46.015625 363.97394Q46.265625 363.47394 46.625 363.23956Q46.984375 362.98956 47.484375 362.98956Q48.34375 362.98956 48.859375 363.67706Q49.375 364.34894 49.375 365.42706Q49.375 366.1927 49.109375 366.78644Q48.828125 367.36456 48.34375 367.6927Q47.859375 368.0208 47.296875 368.0208L47.296875 366.9427Q47.84375 366.91144 48.171875 366.5052Q48.484375 366.09894 48.484375 365.42706Q48.484375 364.8177 48.234375 364.4427Q47.984375 364.0677 47.5625 364.0677ZM39.5 362.53644L39.5 360.3177L51.078125 360.3177L51.078125 362.53644L50.1875 362.53644L50.1875 361.3958L40.390625 361.3958L40.390625 362.53644L39.5 362.53644Z" fill-rule="nonzero"/><path fill="#757575" d="M104.3125 654.6094Q104.3125 656.5156 103.65625 657.4531Q103.015625 658.375 101.625 658.375Q100.265625 658.375 99.609375 657.46875Q98.953125 656.5625 98.921875 654.75L98.921875 653.3125Q98.921875 651.4219 99.5625 650.5156Q100.21875 649.59375 101.609375 649.59375Q102.984375 649.59375 103.640625 650.4844Q104.296875 651.3594 104.3125 653.2031L104.3125 654.6094ZM103.21875 653.125Q103.21875 651.75 102.828125 651.125Q102.453125 650.4844 101.609375 650.4844Q100.78125 650.4844 100.390625 651.125Q100.015625 651.75 100.015625 653.0469L100.015625 654.78125Q100.015625 656.15625 100.40625 656.8281Q100.8125 657.4844 101.625 657.4844Q102.421875 657.4844 102.8125 656.8594Q103.203125 656.2344 103.21875 654.90625L103.21875 653.125Z" fill-rule="nonzero"/><path fill="#757575" d="M83.546875 534.2917L77.953125 534.2917L77.953125 533.51044L80.90625 530.2292Q81.5625 529.4792 81.8125 529.02606Q82.0625 528.5573 82.0625 528.0573Q82.0625 527.38544 81.65625 526.96356Q81.265625 526.52606 80.578125 526.52606Q79.78125 526.52606 79.328125 526.9948Q78.875 527.44794 78.875 528.27606L77.796875 528.27606Q77.796875 527.08856 78.546875 526.3698Q79.3125 525.63544 80.578125 525.63544Q81.78125 525.63544 82.46875 526.26044Q83.15625 526.88544 83.15625 527.9323Q83.15625 529.1823 81.546875 530.9323L79.265625 533.40106L83.546875 533.40106L83.546875 534.2917ZM85.453125 530.01044L85.890625 525.76044L90.265625 525.76044L90.265625 526.76044L86.8125 526.76044L86.546875 529.08856Q87.1875 528.71356 87.984375 528.71356Q89.140625 528.71356 89.828125 529.4948Q90.515625 530.26044 90.515625 531.57294Q90.515625 532.88544 89.796875 533.65106Q89.09375 534.4167 87.8125 534.4167Q86.6875 534.4167 85.96875 533.7917Q85.25 533.15106 85.15625 532.0417L86.171875 532.0417Q86.28125 532.77606 86.703125 533.15106Q87.125 533.52606 87.8125 533.52606Q88.5625 533.52606 89.0 533.01044Q89.4375 532.4948 89.4375 531.58856Q89.4375 530.7292 88.96875 530.21356Q88.5 529.69794 87.71875 529.69794Q87.015625 529.69794 86.609375 529.9948L86.328125 530.2292L85.453125 530.01044ZM97.3125 530.65106Q97.3125 532.5573 96.65625 533.4948Q96.015625 534.4167 94.625 534.4167Q93.265625 534.4167 92.609375 533.51044Q91.953125 532.6042 91.921875 530.7917L91.921875 529.3542Q91.921875 527.46356 92.5625 526.5573Q93.21875 525.63544 94.609375 525.63544Q95.984375 525.63544 96.640625 526.52606Q97.296875 527.40106 97.3125 529.2448L97.3125 530.65106ZM96.21875 529.1667Q96.21875 527.7917 95.828125 527.1667Q95.453125 526.52606 94.609375 526.52606Q93.78125 526.52606 93.390625 527.1667Q93.015625 527.7917 93.015625 529.08856L93.015625 530.82294Q93.015625 532.19794 93.40625 532.8698Q93.8125 533.52606 94.625 533.52606Q95.421875 533.52606 95.8125 532.90106Q96.203125 532.27606 96.21875 530.94794L96.21875 529.1667ZM104.3125 530.65106Q104.3125 532.5573 103.65625 533.4948Q103.015625 534.4167 101.625 534.4167Q100.265625 534.4167 99.609375 533.51044Q98.953125 532.6042 98.921875 530.7917L98.921875 529.3542Q98.921875 527.46356 99.5625 526.5573Q100.21875 525.63544 101.609375 525.63544Q102.984375 525.63544 103.640625 526.52606Q104.296875 527.40106 104.3125 529.2448L104.3125 530.65106ZM103.21875 529.1667Q103.21875 527.7917 102.828125 527.1667Q102.453125 526.52606 101.609375 526.52606Q100.78125 526.52606 100.390625 527.1667Q100.015625 527.7917 100.015625 529.08856L100.015625 530.82294Q100.015625 532.19794 100.40625 532.8698Q100.8125 533.52606 101.625 533.52606Q102.421875 533.52606 102.8125 532.90106Q103.203125 532.27606 103.21875 530.94794L103.21875 529.1667Z" fill-rule="nonzero"/><path fill="#757575" d="M78.453125 406.0521L78.890625 401.8021L83.265625 401.8021L83.265625 402.8021L79.8125 402.8021L79.546875 405.13022Q80.1875 404.75522 80.984375 404.75522Q82.140625 404.75522 82.828125 405.53647Q83.515625 406.3021 83.515625 407.6146Q83.515625 408.9271 82.796875 409.69272Q82.09375 410.45834 80.8125 410.45834Q79.6875 410.45834 78.96875 409.83334Q78.25 409.19272 78.15625 408.08334L79.171875 408.08334Q79.28125 408.81772 79.703125 409.19272Q80.125 409.56772 80.8125 409.56772Q81.5625 409.56772 82.0 409.0521Q82.4375 408.53647 82.4375 407.63022Q82.4375 406.77084 81.96875 406.25522Q81.5 405.7396 80.71875 405.7396Q80.015625 405.7396 79.609375 406.03647L79.328125 406.27084L78.453125 406.0521ZM90.3125 406.69272Q90.3125 408.59897 89.65625 409.53647Q89.015625 410.45834 87.625 410.45834Q86.265625 410.45834 85.609375 409.5521Q84.953125 408.64584 84.921875 406.83334L84.921875 405.39584Q84.921875 403.50522 85.5625 402.59897Q86.21875 401.6771 87.609375 401.6771Q88.984375 401.6771 89.640625 402.56772Q90.296875 403.44272 90.3125 405.28647L90.3125 406.69272ZM89.21875 405.20834Q89.21875 403.83334 88.828125 403.20834Q88.453125 402.56772 87.609375 402.56772Q86.78125 402.56772 86.390625 403.20834Q86.015625 403.83334 86.015625 405.13022L86.015625 406.8646Q86.015625 408.2396 86.40625 408.91147Q86.8125 409.56772 87.625 409.56772Q88.421875 409.56772 88.8125 408.94272Q89.203125 408.31772 89.21875 406.9896L89.21875 405.20834ZM97.3125 406.69272Q97.3125 408.59897 96.65625 409.53647Q96.015625 410.45834 94.625 410.45834Q93.265625 410.45834 92.609375 409.5521Q91.953125 408.64584 91.921875 406.83334L91.921875 405.39584Q91.921875 403.50522 92.5625 402.59897Q93.21875 401.6771 94.609375 401.6771Q95.984375 401.6771 96.640625 402.56772Q97.296875 403.44272 97.3125 405.28647L97.3125 406.69272ZM96.21875 405.20834Q96.21875 403.83334 95.828125 403.20834Q95.453125 402.56772 94.609375 402.56772Q93.78125 402.56772 93.390625 403.20834Q93.015625 403.83334 93.015625 405.13022L93.015625 406.8646Q93.015625 408.2396 93.40625 408.91147Q93.8125 409.56772 94.625 409.56772Q95.421875 409.56772 95.8125 408.94272Q96.203125 408.31772 96.21875 406.9896L96.21875 405.20834ZM104.3125 406.69272Q104.3125 408.59897 103.65625 409.53647Q103.015625 410.45834 101.625 410.45834Q100.265625 410.45834 99.609375 409.5521Q98.953125 408.64584 98.921875 406.83334L98.921875 405.39584Q98.921875 403.50522 99.5625 402.59897Q100.21875 401.6771 101.609375 401.6771Q102.984375 401.6771 103.640625 402.56772Q104.296875 403.44272 104.3125 405.28647L104.3125 406.69272ZM103.21875 405.20834Q103.21875 403.83334 102.828125 403.20834Q102.453125 402.56772 101.609375 402.56772Q100.78125 402.56772 100.390625 403.20834Q100.015625 403.83334 100.015625 405.13022L100.015625 406.8646Q100.015625 408.2396 100.40625 408.91147Q100.8125 409.56772 101.625 409.56772Q102.421875 409.56772 102.8125 408.94272Q103.203125 408.31772 103.21875 406.9896L103.21875 405.20834Z" fill-rule="nonzero"/><path fill="#757575" d="M83.46875 278.45312L79.9375 286.375L78.796875 286.375L82.3125 278.73438L77.703125 278.73438L77.703125 277.84375L83.46875 277.84375L83.46875 278.45312ZM85.453125 282.09375L85.890625 277.84375L90.265625 277.84375L90.265625 278.84375L86.8125 278.84375L86.546875 281.17188Q87.1875 280.79688 87.984375 280.79688Q89.140625 280.79688 89.828125 281.57812Q90.515625 282.34375 90.515625 283.65625Q90.515625 284.96875 89.796875 285.73438Q89.09375 286.5 87.8125 286.5Q86.6875 286.5 85.96875 285.875Q85.25 285.23438 85.15625 284.125L86.171875 284.125Q86.28125 284.85938 86.703125 285.23438Q87.125 285.60938 87.8125 285.60938Q88.5625 285.60938 89.0 285.09375Q89.4375 284.57812 89.4375 283.67188Q89.4375 282.8125 88.96875 282.29688Q88.5 281.78125 87.71875 281.78125Q87.015625 281.78125 86.609375 282.07812L86.328125 282.3125L85.453125 282.09375ZM97.3125 282.73438Q97.3125 284.64062 96.65625 285.57812Q96.015625 286.5 94.625 286.5Q93.265625 286.5 92.609375 285.59375Q91.953125 284.6875 91.921875 282.875L91.921875 281.4375Q91.921875 279.54688 92.5625 278.64062Q93.21875 277.71875 94.609375 277.71875Q95.984375 277.71875 96.640625 278.60938Q97.296875 279.48438 97.3125 281.32812L97.3125 282.73438ZM96.21875 281.25Q96.21875 279.875 95.828125 279.25Q95.453125 278.60938 94.609375 278.60938Q93.78125 278.60938 93.390625 279.25Q93.015625 279.875 93.015625 281.17188L93.015625 282.90625Q93.015625 284.28125 93.40625 284.95312Q93.8125 285.60938 94.625 285.60938Q95.421875 285.60938 95.8125 284.98438Q96.203125 284.35938 96.21875 283.03125L96.21875 281.25ZM104.3125 282.73438Q104.3125 284.64062 103.65625 285.57812Q103.015625 286.5 101.625 286.5Q100.265625 286.5 99.609375 285.59375Q98.953125 284.6875 98.921875 282.875L98.921875 281.4375Q98.921875 279.54688 99.5625 278.64062Q100.21875 277.71875 101.609375 277.71875Q102.984375 277.71875 103.640625 278.60938Q104.296875 279.48438 104.3125 281.32812L104.3125 282.73438ZM103.21875 281.25Q103.21875 279.875 102.828125 279.25Q102.453125 278.60938 101.609375 278.60938Q100.78125 278.60938 100.390625 279.25Q100.015625 279.875 100.015625 281.17188L100.015625 282.90625Q100.015625 284.28125 100.40625 284.95312Q100.8125 285.60938 101.625 285.60938Q102.421875 285.60938 102.8125 284.98438Q103.203125 284.35938 103.21875 283.03125L103.21875 281.25Z" fill-rule="nonzero"/><path fill="#757575" d="M74.515625 162.41667L73.4375 162.41667L73.4375 155.19792L71.25 155.9948L71.25 155.01042L74.359375 153.83855L74.515625 153.83855L74.515625 162.41667ZM83.3125 158.77605Q83.3125 160.6823 82.65625 161.6198Q82.015625 162.54167 80.625 162.54167Q79.265625 162.54167 78.609375 161.63542Q77.953125 160.72917 77.921875 158.91667L77.921875 157.47917Q77.921875 155.58855 78.5625 154.6823Q79.21875 153.76042 80.609375 153.76042Q81.984375 153.76042 82.640625 154.65105Q83.296875 155.52605 83.3125 157.3698L83.3125 158.77605ZM82.21875 157.29167Q82.21875 155.91667 81.828125 155.29167Q81.453125 154.65105 80.609375 154.65105Q79.78125 154.65105 79.390625 155.29167Q79.015625 155.91667 79.015625 157.21355L79.015625 158.94792Q79.015625 160.32292 79.40625 160.9948Q79.8125 161.65105 80.625 161.65105Q81.421875 161.65105 81.8125 161.02605Q82.203125 160.40105 82.21875 159.07292L82.21875 157.29167ZM90.3125 158.77605Q90.3125 160.6823 89.65625 161.6198Q89.015625 162.54167 87.625 162.54167Q86.265625 162.54167 85.609375 161.63542Q84.953125 160.72917 84.921875 158.91667L84.921875 157.47917Q84.921875 155.58855 85.5625 154.6823Q86.21875 153.76042 87.609375 153.76042Q88.984375 153.76042 89.640625 154.65105Q90.296875 155.52605 90.3125 157.3698L90.3125 158.77605ZM89.21875 157.29167Q89.21875 155.91667 88.828125 155.29167Q88.453125 154.65105 87.609375 154.65105Q86.78125 154.65105 86.390625 155.29167Q86.015625 155.91667 86.015625 157.21355L86.015625 158.94792Q86.015625 160.32292 86.40625 160.9948Q86.8125 161.65105 87.625 161.65105Q88.421875 161.65105 88.8125 161.02605Q89.203125 160.40105 89.21875 159.07292L89.21875 157.29167ZM97.3125 158.77605Q97.3125 160.6823 96.65625 161.6198Q96.015625 162.54167 94.625 162.54167Q93.265625 162.54167 92.609375 161.63542Q91.953125 160.72917 91.921875 158.91667L91.921875 157.47917Q91.921875 155.58855 92.5625 154.6823Q93.21875 153.76042 94.609375 153.76042Q95.984375 153.76042 96.640625 154.65105Q97.296875 155.52605 97.3125 157.3698L97.3125 158.77605ZM96.21875 157.29167Q96.21875 155.91667 95.828125 155.29167Q95.453125 154.65105 94.609375 154.65105Q93.78125 154.65105 93.390625 155.29167Q93.015625 155.91667 93.015625 157.21355L93.015625 158.94792Q93.015625 160.32292 93.40625 160.9948Q93.8125 161.65105 94.625 161.65105Q95.421875 161.65105 95.8125 161.02605Q96.203125 160.40105 96.21875 159.07292L96.21875 157.29167ZM104.3125 158.77605Q104.3125 160.6823 103.65625 161.6198Q103.015625 162.54167 101.625 162.54167Q100.265625 162.54167 99.609375 161.63542Q98.953125 160.72917 98.921875 158.91667L98.921875 157.47917Q98.921875 155.58855 99.5625 154.6823Q100.21875 153.76042 101.609375 153.76042Q102.984375 153.76042 103.640625 154.65105Q104.296875 155.52605 104.3125 157.3698L104.3125 158.77605ZM103.21875 157.29167Q103.21875 155.91667 102.828125 155.29167Q102.453125 154.65105 101.609375 154.65105Q100.78125 154.65105 100.390625 155.29167Q100.015625 155.91667 100.015625 157.21355L100.015625 158.94792Q100.015625 160.32292 100.40625 160.9948Q100.8125 161.65105 101.625 161.65105Q102.421875 161.65105 102.8125 161.02605Q103.203125 160.40105 103.21875 159.07292L103.21875 157.29167Z" fill-rule="nonzero"/><path fill="#757575" d="M196.6135 671.75L191.01974 671.75L191.01974 670.96875L193.97287 667.6875Q194.62912 666.9375 194.87912 666.4844Q195.12912 666.0156 195.12912 665.5156Q195.12912 664.84375 194.72287 664.4219Q194.33224 663.9844 193.64474 663.9844Q192.84787 663.9844 192.39474 664.4531Q191.94162 664.90625 191.94162 665.7344L190.8635 665.7344Q190.8635 664.5469 191.6135 663.8281Q192.37912 663.09375 193.64474 663.09375Q194.84787 663.09375 195.53537 663.71875Q196.22287 664.34375 196.22287 665.3906Q196.22287 666.6406 194.6135 668.3906L192.33224 670.8594L196.6135 670.8594L196.6135 671.75ZM198.51974 667.46875L198.95724 663.21875L203.33224 663.21875L203.33224 664.21875L199.87912 664.21875L199.6135 666.5469Q200.25412 666.1719 201.051 666.1719Q202.20724 666.1719 202.89474 666.9531Q203.58224 667.71875 203.58224 669.03125Q203.58224 670.34375 202.8635 671.1094Q202.16037 671.875 200.87912 671.875Q199.75412 671.875 199.03537 671.25Q198.31662 670.6094 198.22287 669.5L199.2385 669.5Q199.34787 670.2344 199.76974 670.6094Q200.19162 670.9844 200.87912 670.9844Q201.62912 670.9844 202.06662 670.46875Q202.50412 669.9531 202.50412 669.0469Q202.50412 668.1875 202.03537 667.6719Q201.56662 667.15625 200.78537 667.15625Q200.08224 667.15625 199.676 667.4531L199.39474 667.6875L198.51974 667.46875ZM210.37912 668.1094Q210.37912 670.0156 209.72287 670.9531Q209.08224 671.875 207.69162 671.875Q206.33224 671.875 205.676 670.96875Q205.01974 670.0625 204.9885 668.25L204.9885 666.8125Q204.9885 664.9219 205.62912 664.0156Q206.28537 663.09375 207.676 663.09375Q209.051 663.09375 209.70724 663.9844Q210.3635 664.8594 210.37912 666.7031L210.37912 668.1094ZM209.28537 666.625Q209.28537 665.25 208.89474 664.625Q208.51974 663.9844 207.676 663.9844Q206.84787 663.9844 206.45724 664.625Q206.08224 665.25 206.08224 666.5469L206.08224 668.28125Q206.08224 669.65625 206.47287 670.3281Q206.87912 670.9844 207.69162 670.9844Q208.4885 670.9844 208.87912 670.3594Q209.26974 669.7344 209.28537 668.40625L209.28537 666.625ZM217.37912 668.1094Q217.37912 670.0156 216.72287 670.9531Q216.08224 671.875 214.69162 671.875Q213.33224 671.875 212.676 670.96875Q212.01974 670.0625 211.9885 668.25L211.9885 666.8125Q211.9885 664.9219 212.62912 664.0156Q213.28537 663.09375 214.676 663.09375Q216.051 663.09375 216.70724 663.9844Q217.3635 664.8594 217.37912 666.7031L217.37912 668.1094ZM216.28537 666.625Q216.28537 665.25 215.89474 664.625Q215.51974 663.9844 214.676 663.9844Q213.84787 663.9844 213.45724 664.625Q213.08224 665.25 213.08224 666.5469L213.08224 668.28125Q213.08224 669.65625 213.47287 670.3281Q213.87912 670.9844 214.69162 670.9844Q215.4885 670.9844 215.87912 670.3594Q216.26974 669.7344 216.28537 668.40625L216.28537 666.625Z" fill-rule="nonzero"/><path fill="#757575" d="M330.34616 667.46875L330.78366 663.21875L335.15866 663.21875L335.15866 664.21875L331.70554 664.21875L331.4399 666.5469Q332.08054 666.1719 332.8774 666.1719Q334.03366 666.1719 334.72116 666.9531Q335.40866 667.71875 335.40866 669.03125Q335.40866 670.34375 334.6899 671.1094Q333.9868 671.875 332.70554 671.875Q331.58054 671.875 330.8618 671.25Q330.14304 670.6094 330.0493 669.5L331.0649 669.5Q331.1743 670.2344 331.59616 670.6094Q332.01804 670.9844 332.70554 670.9844Q333.45554 670.9844 333.89304 670.46875Q334.33054 669.9531 334.33054 669.0469Q334.33054 668.1875 333.8618 667.6719Q333.39304 667.15625 332.6118 667.15625Q331.90866 667.15625 331.5024 667.4531L331.22116 667.6875L330.34616 667.46875ZM342.20554 668.1094Q342.20554 670.0156 341.5493 670.9531Q340.90866 671.875 339.51804 671.875Q338.15866 671.875 337.5024 670.96875Q336.84616 670.0625 336.8149 668.25L336.8149 666.8125Q336.8149 664.9219 337.45554 664.0156Q338.1118 663.09375 339.5024 663.09375Q340.8774 663.09375 341.53366 663.9844Q342.1899 664.8594 342.20554 666.7031L342.20554 668.1094ZM341.1118 666.625Q341.1118 665.25 340.72116 664.625Q340.34616 663.9844 339.5024 663.9844Q338.6743 663.9844 338.28366 664.625Q337.90866 665.25 337.90866 666.5469L337.90866 668.28125Q337.90866 669.65625 338.2993 670.3281Q338.70554 670.9844 339.51804 670.9844Q340.3149 670.9844 340.70554 670.3594Q341.09616 669.7344 341.1118 668.40625L341.1118 666.625ZM349.20554 668.1094Q349.20554 670.0156 348.5493 670.9531Q347.90866 671.875 346.51804 671.875Q345.15866 671.875 344.5024 670.96875Q343.84616 670.0625 343.8149 668.25L343.8149 666.8125Q343.8149 664.9219 344.45554 664.0156Q345.1118 663.09375 346.5024 663.09375Q347.8774 663.09375 348.53366 663.9844Q349.1899 664.8594 349.20554 666.7031L349.20554 668.1094ZM348.1118 666.625Q348.1118 665.25 347.72116 664.625Q347.34616 663.9844 346.5024 663.9844Q345.6743 663.9844 345.28366 664.625Q344.90866 665.25 344.90866 666.5469L344.90866 668.28125Q344.90866 669.65625 345.2993 670.3281Q345.70554 670.9844 346.51804 670.9844Q347.3149 670.9844 347.70554 670.3594Q348.09616 669.7344 348.1118 668.40625L348.1118 666.625ZM356.20554 668.1094Q356.20554 670.0156 355.5493 670.9531Q354.90866 671.875 353.51804 671.875Q352.15866 671.875 351.5024 670.96875Q350.84616 670.0625 350.8149 668.25L350.8149 666.8125Q350.8149 664.9219 351.45554 664.0156Q352.1118 663.09375 353.5024 663.09375Q354.8774 663.09375 355.53366 663.9844Q356.1899 664.8594 356.20554 666.7031L356.20554 668.1094ZM355.1118 666.625Q355.1118 665.25 354.72116 664.625Q354.34616 663.9844 353.5024 663.9844Q352.6743 663.9844 352.28366 664.625Q351.90866 665.25 351.90866 666.5469L351.90866 668.28125Q351.90866 669.65625 352.2993 670.3281Q352.70554 670.9844 353.51804 670.9844Q354.3149 670.9844 354.70554 670.3594Q355.09616 669.7344 355.1118 668.40625L355.1118 666.625Z" fill-rule="nonzero"/><path fill="#757575" d="M474.18817 663.8281L470.65692 671.75L469.5163 671.75L473.03192 664.1094L468.42255 664.1094L468.42255 663.21875L474.18817 663.21875L474.18817 663.8281ZM476.17255 667.46875L476.61005 663.21875L480.98505 663.21875L480.98505 664.21875L477.53192 664.21875L477.2663 666.5469Q477.90692 666.1719 478.7038 666.1719Q479.86005 666.1719 480.54755 666.9531Q481.23505 667.71875 481.23505 669.03125Q481.23505 670.34375 480.5163 671.1094Q479.81317 671.875 478.53192 671.875Q477.40692 671.875 476.68817 671.25Q475.96942 670.6094 475.87567 669.5L476.8913 669.5Q477.00067 670.2344 477.42255 670.6094Q477.84442 670.9844 478.53192 670.9844Q479.28192 670.9844 479.71942 670.46875Q480.15692 669.9531 480.15692 669.0469Q480.15692 668.1875 479.68817 667.6719Q479.21942 667.15625 478.43817 667.15625Q477.73505 667.15625 477.3288 667.4531L477.04755 667.6875L476.17255 667.46875ZM488.03192 668.1094Q488.03192 670.0156 487.37567 670.9531Q486.73505 671.875 485.34442 671.875Q483.98505 671.875 483.3288 670.96875Q482.67255 670.0625 482.6413 668.25L482.6413 666.8125Q482.6413 664.9219 483.28192 664.0156Q483.93817 663.09375 485.3288 663.09375Q486.7038 663.09375 487.36005 663.9844Q488.0163 664.8594 488.03192 666.7031L488.03192 668.1094ZM486.93817 666.625Q486.93817 665.25 486.54755 664.625Q486.17255 663.9844 485.3288 663.9844Q484.50067 663.9844 484.11005 664.625Q483.73505 665.25 483.73505 666.5469L483.73505 668.28125Q483.73505 669.65625 484.12567 670.3281Q484.53192 670.9844 485.34442 670.9844Q486.1413 670.9844 486.53192 670.3594Q486.92255 669.7344 486.93817 668.40625L486.93817 666.625ZM495.03192 668.1094Q495.03192 670.0156 494.37567 670.9531Q493.73505 671.875 492.34442 671.875Q490.98505 671.875 490.3288 670.96875Q489.67255 670.0625 489.6413 668.25L489.6413 666.8125Q489.6413 664.9219 490.28192 664.0156Q490.93817 663.09375 492.3288 663.09375Q493.7038 663.09375 494.36005 663.9844Q495.0163 664.8594 495.03192 666.7031L495.03192 668.1094ZM493.93817 666.625Q493.93817 665.25 493.54755 664.625Q493.17255 663.9844 492.3288 663.9844Q491.50067 663.9844 491.11005 664.625Q490.73505 665.25 490.73505 666.5469L490.73505 668.28125Q490.73505 669.65625 491.12567 670.3281Q491.53192 670.9844 492.34442 670.9844Q493.1413 670.9844 493.53192 670.3594Q493.92255 669.7344 493.93817 668.40625L493.93817 666.625Z" fill-rule="nonzero"/><path fill="#757575" d="M607.56146 671.75L606.48334 671.75L606.48334 664.53125L604.29584 665.3281L604.29584 664.34375L607.4052 663.1719L607.56146 663.1719L607.56146 671.75ZM616.35834 668.1094Q616.35834 670.0156 615.7021 670.9531Q615.06146 671.875 613.67084 671.875Q612.31146 671.875 611.6552 670.96875Q610.99896 670.0625 610.9677 668.25L610.9677 666.8125Q610.9677 664.9219 611.60834 664.0156Q612.2646 663.09375 613.6552 663.09375Q615.0302 663.09375 615.68646 663.9844Q616.3427 664.8594 616.35834 666.7031L616.35834 668.1094ZM615.2646 666.625Q615.2646 665.25 614.87396 664.625Q614.49896 663.9844 613.6552 663.9844Q612.8271 663.9844 612.43646 664.625Q612.06146 665.25 612.06146 666.5469L612.06146 668.28125Q612.06146 669.65625 612.4521 670.3281Q612.85834 670.9844 613.67084 670.9844Q614.4677 670.9844 614.85834 670.3594Q615.24896 669.7344 615.2646 668.40625L615.2646 666.625ZM623.35834 668.1094Q623.35834 670.0156 622.7021 670.9531Q622.06146 671.875 620.67084 671.875Q619.31146 671.875 618.6552 670.96875Q617.99896 670.0625 617.9677 668.25L617.9677 666.8125Q617.9677 664.9219 618.60834 664.0156Q619.2646 663.09375 620.6552 663.09375Q622.0302 663.09375 622.68646 663.9844Q623.3427 664.8594 623.35834 666.7031L623.35834 668.1094ZM622.2646 666.625Q622.2646 665.25 621.87396 664.625Q621.49896 663.9844 620.6552 663.9844Q619.8271 663.9844 619.43646 664.625Q619.06146 665.25 619.06146 666.5469L619.06146 668.28125Q619.06146 669.65625 619.4521 670.3281Q619.85834 670.9844 620.67084 670.9844Q621.4677 670.9844 621.85834 670.3594Q622.24896 669.7344 622.2646 668.40625L622.2646 666.625ZM630.35834 668.1094Q630.35834 670.0156 629.7021 670.9531Q629.06146 671.875 627.67084 671.875Q626.31146 671.875 625.6552 670.96875Q624.99896 670.0625 624.9677 668.25L624.9677 666.8125Q624.9677 664.9219 625.60834 664.0156Q626.2646 663.09375 627.6552 663.09375Q629.0302 663.09375 629.68646 663.9844Q630.3427 664.8594 630.35834 666.7031L630.35834 668.1094ZM629.2646 666.625Q629.2646 665.25 628.87396 664.625Q628.49896 663.9844 627.6552 663.9844Q626.8271 663.9844 626.43646 664.625Q626.06146 665.25 626.06146 666.5469L626.06146 668.28125Q626.06146 669.65625 626.4521 670.3281Q626.85834 670.9844 627.67084 670.9844Q628.4677 670.9844 628.85834 670.3594Q629.24896 669.7344 629.2646 668.40625L629.2646 666.625ZM637.35834 668.1094Q637.35834 670.0156 636.7021 670.9531Q636.06146 671.875 634.67084 671.875Q633.31146 671.875 632.6552 670.96875Q631.99896 670.0625 631.9677 668.25L631.9677 666.8125Q631.9677 664.9219 632.60834 664.0156Q633.2646 663.09375 634.6552 663.09375Q636.0302 663.09375 636.68646 663.9844Q637.3427 664.8594 637.35834 666.7031L637.35834 668.1094ZM636.2646 666.625Q636.2646 665.25 635.87396 664.625Q635.49896 663.9844 634.6552 663.9844Q633.8271 663.9844 633.43646 664.625Q633.06146 665.25 633.06146 666.5469L633.06146 668.28125Q633.06146 669.65625 633.4521 670.3281Q633.85834 670.9844 634.67084 670.9844Q635.4677 670.9844 635.85834 670.3594Q636.24896 669.7344 636.2646 668.40625L636.2646 666.625Z" fill-rule="nonzero"/><path fill="#757575" d="M746.3879 671.75L745.30975 671.75L745.30975 664.53125L743.12225 665.3281L743.12225 664.34375L746.2316 663.1719L746.3879 663.1719L746.3879 671.75ZM755.4191 671.75L749.8254 671.75L749.8254 670.96875L752.7785 667.6875Q753.43475 666.9375 753.68475 666.4844Q753.93475 666.0156 753.93475 665.5156Q753.93475 664.84375 753.5285 664.4219Q753.1379 663.9844 752.4504 663.9844Q751.6535 663.9844 751.2004 664.4531Q750.74725 664.90625 750.74725 665.7344L749.6691 665.7344Q749.6691 664.5469 750.4191 663.8281Q751.18475 663.09375 752.4504 663.09375Q753.6535 663.09375 754.341 663.71875Q755.0285 664.34375 755.0285 665.3906Q755.0285 666.6406 753.4191 668.3906L751.1379 670.8594L755.4191 670.8594L755.4191 671.75ZM757.3254 667.46875L757.7629 663.21875L762.1379 663.21875L762.1379 664.21875L758.68475 664.21875L758.4191 666.5469Q759.05975 666.1719 759.8566 666.1719Q761.0129 666.1719 761.7004 666.9531Q762.3879 667.71875 762.3879 669.03125Q762.3879 670.34375 761.6691 671.1094Q760.966 671.875 759.68475 671.875Q758.55975 671.875 757.841 671.25Q757.12225 670.6094 757.0285 669.5L758.0441 669.5Q758.1535 670.2344 758.5754 670.6094Q758.99725 670.9844 759.68475 670.9844Q760.43475 670.9844 760.87225 670.46875Q761.30975 669.9531 761.30975 669.0469Q761.30975 668.1875 760.841 667.6719Q760.37225 667.15625 759.591 667.15625Q758.8879 667.15625 758.4816 667.4531L758.2004 667.6875L757.3254 667.46875ZM769.18475 668.1094Q769.18475 670.0156 768.5285 670.9531Q767.8879 671.875 766.49725 671.875Q765.1379 671.875 764.4816 670.96875Q763.8254 670.0625 763.7941 668.25L763.7941 666.8125Q763.7941 664.9219 764.43475 664.0156Q765.091 663.09375 766.4816 663.09375Q767.8566 663.09375 768.5129 663.9844Q769.1691 664.8594 769.18475 666.7031L769.18475 668.1094ZM768.091 666.625Q768.091 665.25 767.7004 664.625Q767.3254 663.9844 766.4816 663.9844Q765.6535 663.9844 765.2629 664.625Q764.8879 665.25 764.8879 666.5469L764.8879 668.28125Q764.8879 669.65625 765.2785 670.3281Q765.68475 670.9844 766.49725 670.9844Q767.2941 670.9844 767.68475 670.3594Q768.0754 669.7344 768.091 668.40625L768.091 666.625ZM776.18475 668.1094Q776.18475 670.0156 775.5285 670.9531Q774.8879 671.875 773.49725 671.875Q772.1379 671.875 771.4816 670.96875Q770.8254 670.0625 770.7941 668.25L770.7941 666.8125Q770.7941 664.9219 771.43475 664.0156Q772.091 663.09375 773.4816 663.09375Q774.8566 663.09375 775.5129 663.9844Q776.1691 664.8594 776.18475 666.7031L776.18475 668.1094ZM775.091 666.625Q775.091 665.25 774.7004 664.625Q774.3254 663.9844 773.4816 663.9844Q772.6535 663.9844 772.2629 664.625Q771.8879 665.25 771.8879 666.5469L771.8879 668.28125Q771.8879 669.65625 772.2785 670.3281Q772.68475 670.9844 773.49725 670.9844Q774.2941 670.9844 774.68475 670.3594Q775.0754 669.7344 775.091 668.40625L775.091 666.625Z" fill-rule="nonzero"/><path fill="#757575" d="M885.2143 671.75L884.13617 671.75L884.13617 664.53125L881.94867 665.3281L881.94867 664.34375L885.05804 663.1719L885.2143 663.1719L885.2143 671.75ZM889.1518 667.46875L889.5893 663.21875L893.9643 663.21875L893.9643 664.21875L890.51117 664.21875L890.24554 666.5469Q890.88617 666.1719 891.68304 666.1719Q892.8393 666.1719 893.5268 666.9531Q894.2143 667.71875 894.2143 669.03125Q894.2143 670.34375 893.49554 671.1094Q892.7924 671.875 891.51117 671.875Q890.38617 671.875 889.6674 671.25Q888.94867 670.6094 888.8549 669.5L889.87054 669.5Q889.9799 670.2344 890.4018 670.6094Q890.82367 670.9844 891.51117 670.9844Q892.26117 670.9844 892.69867 670.46875Q893.13617 669.9531 893.13617 669.0469Q893.13617 668.1875 892.6674 667.6719Q892.19867 667.15625 891.4174 667.15625Q890.7143 667.15625 890.30804 667.4531L890.0268 667.6875L889.1518 667.46875ZM901.01117 668.1094Q901.01117 670.0156 900.3549 670.9531Q899.7143 671.875 898.32367 671.875Q896.9643 671.875 896.30804 670.96875Q895.6518 670.0625 895.62054 668.25L895.62054 666.8125Q895.62054 664.9219 896.26117 664.0156Q896.9174 663.09375 898.30804 663.09375Q899.68304 663.09375 900.3393 663.9844Q900.99554 664.8594 901.01117 666.7031L901.01117 668.1094ZM899.9174 666.625Q899.9174 665.25 899.5268 664.625Q899.1518 663.9844 898.30804 663.9844Q897.4799 663.9844 897.0893 664.625Q896.7143 665.25 896.7143 666.5469L896.7143 668.28125Q896.7143 669.65625 897.1049 670.3281Q897.51117 670.9844 898.32367 670.9844Q899.12054 670.9844 899.51117 670.3594Q899.9018 669.7344 899.9174 668.40625L899.9174 666.625ZM908.01117 668.1094Q908.01117 670.0156 907.3549 670.9531Q906.7143 671.875 905.32367 671.875Q903.9643 671.875 903.30804 670.96875Q902.6518 670.0625 902.62054 668.25L902.62054 666.8125Q902.62054 664.9219 903.26117 664.0156Q903.9174 663.09375 905.30804 663.09375Q906.68304 663.09375 907.3393 663.9844Q907.99554 664.8594 908.01117 666.7031L908.01117 668.1094ZM906.9174 666.625Q906.9174 665.25 906.5268 664.625Q906.1518 663.9844 905.30804 663.9844Q904.4799 663.9844 904.0893 664.625Q903.7143 665.25 903.7143 666.5469L903.7143 668.28125Q903.7143 669.65625 904.1049 670.3281Q904.51117 670.9844 905.32367 670.9844Q906.12054 670.9844 906.51117 670.3594Q906.9018 669.7344 906.9174 668.40625L906.9174 666.625ZM915.01117 668.1094Q915.01117 670.0156 914.3549 670.9531Q913.7143 671.875 912.32367 671.875Q910.9643 671.875 910.30804 670.96875Q909.6518 670.0625 909.62054 668.25L909.62054 666.8125Q909.62054 664.9219 910.26117 664.0156Q910.9174 663.09375 912.30804 663.09375Q913.68304 663.09375 914.3393 663.9844Q914.99554 664.8594 915.01117 666.7031L915.01117 668.1094ZM913.9174 666.625Q913.9174 665.25 913.5268 664.625Q913.1518 663.9844 912.30804 663.9844Q911.4799 663.9844 911.0893 664.625Q910.7143 665.25 910.7143 666.5469L910.7143 668.28125Q910.7143 669.65625 911.1049 670.3281Q911.51117 670.9844 912.32367 670.9844Q913.12054 670.9844 913.51117 670.3594Q913.9018 669.7344 913.9174 668.40625L913.9174 666.625Z" fill-rule="nonzero"/><path fill="#ff0000" d="M454.5 118.083336C454.5 121.39704 451.81372 124.083336 448.5 124.083336C445.18628 124.083336 442.5 121.39704 442.5 118.083336C442.5 114.76962 445.18628 112.083336 448.5 112.083336C451.81372 112.083336 454.5 114.76962 454.5 118.083336Z" fill-rule="nonzero"/><path fill="#757575" d="M463.48438 122.583336L463.48438 114.052086L466.28125 114.052086Q467.67188 114.052086 468.35938 114.63021Q469.0625 115.19271 469.0625 116.31771Q469.0625 116.927086 468.71875 117.395836Q468.39062 117.84896 467.79688 118.09896Q468.5 118.28646 468.89062 118.833336Q469.29688 119.364586 469.29688 120.114586Q469.29688 121.270836 468.54688 121.927086Q467.8125 122.583336 466.45312 122.583336L463.48438 122.583336ZM464.60938 118.59896L464.60938 121.66146L466.46875 121.66146Q467.26562 121.66146 467.71875 121.25521Q468.17188 120.84896 468.17188 120.13021Q468.17188 118.59896 466.48438 118.59896L464.60938 118.59896ZM464.60938 117.69271L466.3125 117.69271Q467.04688 117.69271 467.48438 117.333336Q467.9375 116.958336 467.9375 116.31771Q467.9375 115.614586 467.53125 115.302086Q467.125 114.97396 466.28125 114.97396L464.60938 114.97396L464.60938 117.69271ZM472.95312 122.708336Q471.65625 122.708336 470.84375 121.864586Q470.04688 121.00521 470.04688 119.583336L470.04688 119.395836Q470.04688 118.44271 470.40625 117.708336Q470.76562 116.958336 471.40625 116.552086Q472.0625 116.13021 472.8125 116.13021Q474.04688 116.13021 474.73438 116.94271Q475.42188 117.75521 475.42188 119.270836L475.42188 119.72396L471.125 119.72396Q471.15625 120.66146 471.67188 121.239586Q472.20312 121.81771 473.01562 121.81771Q473.57812 121.81771 473.96875 121.583336Q474.375 121.34896 474.6875 120.958336L475.34375 121.47396Q474.54688 122.708336 472.95312 122.708336ZM472.8125 117.020836Q472.15625 117.020836 471.70312 117.50521Q471.26562 117.97396 471.17188 118.833336L474.34375 118.833336L474.34375 118.75521Q474.29688 117.927086 473.89062 117.47396Q473.5 117.020836 472.8125 117.020836ZM476.85938 122.583336L476.85938 117.083336L475.85938 117.083336L475.85938 116.239586L476.85938 116.239586L476.85938 115.59896Q476.85938 114.56771 477.39062 114.020836Q477.9375 113.458336 478.9375 113.458336Q479.3125 113.458336 479.6875 113.552086L479.625 114.44271Q479.34375 114.38021 479.04688 114.38021Q478.51562 114.38021 478.21875 114.69271Q477.9375 115.00521 477.9375 115.56771L477.9375 116.239586L479.29688 116.239586L479.29688 117.083336L477.9375 117.083336L477.9375 122.583336L476.85938 122.583336ZM480.03125 119.34896Q480.03125 118.427086 480.39062 117.677086Q480.76562 116.927086 481.42188 116.53646Q482.07812 116.13021 482.90625 116.13021Q484.20312 116.13021 485.0 117.020836Q485.8125 117.91146 485.8125 119.41146L485.8125 119.489586Q485.8125 120.41146 485.45312 121.145836Q485.09375 121.88021 484.4375 122.302086Q483.78125 122.708336 482.92188 122.708336Q481.64062 122.708336 480.82812 121.81771Q480.03125 120.91146 480.03125 119.427086L480.03125 119.34896ZM481.125 119.489586Q481.125 120.53646 481.60938 121.177086Q482.10938 121.81771 482.92188 121.81771Q483.75 121.81771 484.23438 121.177086Q484.71875 120.520836 484.71875 119.34896Q484.71875 118.31771 484.21875 117.677086Q483.73438 117.020836 482.90625 117.020836Q482.10938 117.020836 481.60938 117.66146Q481.125 118.28646 481.125 119.489586ZM490.39062 117.208336Q490.14062 117.177086 489.85938 117.177086Q488.78125 117.177086 488.40625 118.083336L488.40625 122.583336L487.32812 122.583336L487.32812 116.239586L488.375 116.239586L488.39062 116.97396Q488.92188 116.13021 489.90625 116.13021Q490.21875 116.13021 490.39062 116.208336L490.39062 117.208336ZM493.95312 122.708336Q492.65625 122.708336 491.84375 121.864586Q491.04688 121.00521 491.04688 119.583336L491.04688 119.395836Q491.04688 118.44271 491.40625 117.708336Q491.76562 116.958336 492.40625 116.552086Q493.0625 116.13021 493.8125 116.13021Q495.04688 116.13021 495.73438 116.94271Q496.42188 117.75521 496.42188 119.270836L496.42188 119.72396L492.125 119.72396Q492.15625 120.66146 492.67188 121.239586Q493.20312 121.81771 494.01562 121.81771Q494.57812 121.81771 494.96875 121.583336Q495.375 121.34896 495.6875 120.958336L496.34375 121.47396Q495.54688 122.708336 493.95312 122.708336ZM493.8125 117.020836Q493.15625 117.020836 492.70312 117.50521Q492.26562 117.97396 492.17188 118.833336L495.34375 118.833336L495.34375 118.75521Q495.29688 117.927086 494.89062 117.47396Q494.5 117.020836 493.8125 117.020836Z" fill-rule="nonzero"/><path fill="#6aa84f" d="M524.5 118.083336C524.5 121.39704 521.8137 124.083336 518.5 124.083336C515.1863 124.083336 512.5 121.39704 512.5 118.083336C512.5 114.76962 515.1863 112.083336 518.5 112.083336C521.8137 112.083336 524.5 114.76962 524.5 118.083336Z" fill-rule="nonzero"/><path fill="#757575" d="M538.2031 120.34896L534.625 120.34896L533.8281 122.583336L532.6719 122.583336L535.9219 114.052086L536.90625 114.052086L540.1719 122.583336L539.0156 122.583336L538.2031 120.34896ZM534.96875 119.427086L537.875 119.427086L536.4219 115.44271L534.96875 119.427086ZM541.8594 122.583336L541.8594 117.083336L540.8594 117.083336L540.8594 116.239586L541.8594 116.239586L541.8594 115.59896Q541.8594 114.56771 542.3906 114.020836Q542.9375 113.458336 543.9375 113.458336Q544.3125 113.458336 544.6875 113.552086L544.625 114.44271Q544.34375 114.38021 544.0469 114.38021Q543.5156 114.38021 543.21875 114.69271Q542.9375 115.00521 542.9375 115.56771L542.9375 116.239586L544.2969 116.239586L544.2969 117.083336L542.9375 117.083336L542.9375 122.583336L541.8594 122.583336ZM546.7969 114.708336L546.7969 116.239586L547.96875 116.239586L547.96875 117.083336L546.7969 117.083336L546.7969 121.00521Q546.7969 121.395836 546.9531 121.583336Q547.1094 121.770836 547.4844 121.770836Q547.6719 121.770836 548.0 121.708336L548.0 122.583336Q547.5781 122.708336 547.1719 122.708336Q546.4531 122.708336 546.0781 122.270836Q545.7031 121.81771 545.7031 121.00521L545.7031 117.083336L544.5469 117.083336L544.5469 116.239586L545.7031 116.239586L545.7031 114.708336L546.7969 114.708336ZM551.9531 122.708336Q550.65625 122.708336 549.84375 121.864586Q549.0469 121.00521 549.0469 119.583336L549.0469 119.395836Q549.0469 118.44271 549.40625 117.708336Q549.7656 116.958336 550.40625 116.552086Q551.0625 116.13021 551.8125 116.13021Q553.0469 116.13021 553.7344 116.94271Q554.4219 117.75521 554.4219 119.270836L554.4219 119.72396L550.125 119.72396Q550.15625 120.66146 550.6719 121.239586Q551.2031 121.81771 552.0156 121.81771Q552.5781 121.81771 552.96875 121.583336Q553.375 121.34896 553.6875 120.958336L554.34375 121.47396Q553.5469 122.708336 551.9531 122.708336ZM551.8125 117.020836Q551.15625 117.020836 550.7031 117.50521Q550.2656 117.97396 550.1719 118.833336L553.34375 118.833336L553.34375 118.75521Q553.2969 117.927086 552.8906 117.47396Q552.5 117.020836 551.8125 117.020836ZM558.3906 117.208336Q558.1406 117.177086 557.8594 117.177086Q556.78125 117.177086 556.40625 118.083336L556.40625 122.583336L555.3281 122.583336L555.3281 116.239586L556.375 116.239586L556.3906 116.97396Q556.9219 116.13021 557.90625 116.13021Q558.21875 116.13021 558.3906 116.208336L558.3906 117.208336Z" fill-rule="nonzero"/><path fill="#bdbdbd" d="M448.09375 77.3125Q446.40625 76.828125 445.625 76.125Q444.85938 75.40625 444.85938 74.375Q444.85938 73.203125 445.79688 72.4375Q446.73438 71.65625 448.25 71.65625Q449.26562 71.65625 450.0625 72.0625Q450.875 72.453125 451.3125 73.15625Q451.76562 73.84375 451.76562 74.671875L450.4375 74.671875Q450.4375 73.765625 449.85938 73.25Q449.29688 72.734375 448.25 72.734375Q447.28125 72.734375 446.73438 73.171875Q446.1875 73.59375 446.1875 74.359375Q446.1875 74.96875 446.70312 75.390625Q447.21875 75.796875 448.45312 76.15625Q449.70312 76.5 450.40625 76.921875Q451.10938 77.34375 451.4375 77.90625Q451.78125 78.46875 451.78125 79.21875Q451.78125 80.4375 450.82812 81.171875Q449.89062 81.890625 448.3125 81.890625Q447.28125 81.890625 446.39062 81.5Q445.51562 81.09375 445.03125 80.421875Q444.54688 79.734375 444.54688 78.859375L445.85938 78.859375Q445.85938 79.765625 446.53125 80.296875Q447.20312 80.8125 448.3125 80.8125Q449.35938 80.8125 449.90625 80.390625Q450.45312 79.96875 450.45312 79.234375Q450.45312 78.5 449.9375 78.109375Q449.4375 77.703125 448.09375 77.3125ZM456.03125 81.890625Q454.51562 81.890625 453.57812 80.90625Q452.64062 79.90625 452.64062 78.25L452.64062 78.03125Q452.64062 76.921875 453.0625 76.0625Q453.48438 75.1875 454.23438 74.703125Q454.98438 74.21875 455.875 74.21875Q457.3125 74.21875 458.10938 75.171875Q458.90625 76.109375 458.90625 77.890625L458.90625 78.40625L453.90625 78.40625Q453.92188 79.5 454.53125 80.1875Q455.15625 80.859375 456.09375 80.859375Q456.76562 80.859375 457.21875 80.59375Q457.6875 80.3125 458.04688 79.859375L458.8125 80.453125Q457.89062 81.890625 456.03125 81.890625ZM455.875 75.25Q455.10938 75.25 454.57812 75.8125Q454.0625 76.375 453.9375 77.375L457.64062 77.375L457.64062 77.28125Q457.59375 76.3125 457.125 75.78125Q456.65625 75.25 455.875 75.25ZM459.65625 77.984375Q459.65625 76.25 460.45312 75.234375Q461.25 74.21875 462.59375 74.21875Q463.90625 74.21875 464.67188 75.09375L464.71875 74.359375L465.89062 74.359375L465.89062 84.59375L464.625 84.59375L464.625 81.0625Q463.85938 81.890625 462.57812 81.890625Q461.25 81.890625 460.45312 80.84375Q459.65625 79.796875 459.65625 78.078125L459.65625 77.984375ZM460.92188 78.140625Q460.92188 79.40625 461.45312 80.140625Q461.98438 80.859375 462.89062 80.859375Q464.03125 80.859375 464.625 79.859375L464.625 76.234375Q464.01562 75.25 462.90625 75.25Q462.0 75.25 461.45312 75.984375Q460.92188 76.71875 460.92188 78.140625ZM472.53125 81.015625Q471.78125 81.890625 470.35938 81.890625Q469.17188 81.890625 468.54688 81.203125Q467.9375 80.515625 467.9375 79.171875L467.9375 74.359375L469.1875 74.359375L469.1875 79.125Q469.1875 80.8125 470.5625 80.8125Q472.01562 80.8125 472.48438 79.734375L472.48438 74.359375L473.75 74.359375L473.75 81.75L472.54688 81.75L472.53125 81.015625ZM479.03125 81.890625Q477.51562 81.890625 476.57812 80.90625Q475.64062 79.90625 475.64062 78.25L475.64062 78.03125Q475.64062 76.921875 476.0625 76.0625Q476.48438 75.1875 477.23438 74.703125Q477.98438 74.21875 478.875 74.21875Q480.3125 74.21875 481.10938 75.171875Q481.90625 76.109375 481.90625 77.890625L481.90625 78.40625L476.90625 78.40625Q476.92188 79.5 477.53125 80.1875Q478.15625 80.859375 479.09375 80.859375Q479.76562 80.859375 480.21875 80.59375Q480.6875 80.3125 481.04688 79.859375L481.8125 80.453125Q480.89062 81.890625 479.03125 81.890625ZM478.875 75.25Q478.10938 75.25 477.57812 75.8125Q477.0625 76.375 476.9375 77.375L480.64062 77.375L480.64062 77.28125Q480.59375 76.3125 480.125 75.78125Q479.65625 75.25 478.875 75.25ZM484.15625 74.359375L484.1875 75.28125Q485.04688 74.21875 486.40625 74.21875Q488.75 74.21875 488.78125 76.859375L488.78125 81.75L487.51562 81.75L487.51562 76.859375Q487.5 76.0625 487.14062 75.6875Q486.78125 75.296875 486.03125 75.296875Q485.40625 75.296875 484.9375 75.625Q484.48438 75.953125 484.21875 76.484375L484.21875 81.75L482.95312 81.75L482.95312 74.359375L484.15625 74.359375ZM492.67188 72.5625L492.67188 74.359375L494.04688 74.359375L494.04688 75.328125L492.67188 75.328125L492.67188 79.921875Q492.67188 80.359375 492.85938 80.59375Q493.04688 80.8125 493.48438 80.8125Q493.70312 80.8125 494.09375 80.71875L494.09375 81.75Q493.59375 81.890625 493.125 81.890625Q492.26562 81.890625 491.82812 81.375Q491.40625 80.859375 491.40625 79.921875L491.40625 75.328125L490.0625 75.328125L490.0625 74.359375L491.40625 74.359375L491.40625 72.5625L492.67188 72.5625ZM497.32812 81.75L496.0625 81.75L496.0625 74.359375L497.32812 74.359375L497.32812 81.75ZM495.96875 72.390625Q495.96875 72.078125 496.15625 71.875Q496.34375 71.65625 496.70312 71.65625Q497.07812 71.65625 497.26562 71.875Q497.46875 72.078125 497.46875 72.390625Q497.46875 72.703125 497.26562 72.90625Q497.07812 73.109375 496.70312 73.109375Q496.34375 73.109375 496.15625 72.90625Q495.96875 72.703125 495.96875 72.390625ZM503.53125 81.75Q503.42188 81.53125 503.34375 80.96875Q502.46875 81.890625 501.23438 81.890625Q500.14062 81.890625 499.4375 81.28125Q498.75 80.65625 498.75 79.703125Q498.75 78.546875 499.625 77.90625Q500.5 77.265625 502.09375 77.265625L503.32812 77.265625L503.32812 76.6875Q503.32812 76.015625 502.92188 75.625Q502.53125 75.234375 501.76562 75.234375Q501.07812 75.234375 500.625 75.578125Q500.17188 75.921875 500.17188 76.40625L498.89062 76.40625Q498.89062 75.84375 499.28125 75.328125Q499.6875 74.8125 500.35938 74.515625Q501.03125 74.21875 501.82812 74.21875Q503.10938 74.21875 503.82812 74.859375Q504.5625 75.5 504.59375 76.609375L504.59375 80.015625Q504.59375 81.03125 504.84375 81.640625L504.84375 81.75L503.53125 81.75ZM501.42188 80.78125Q502.01562 80.78125 502.54688 80.484375Q503.09375 80.171875 503.32812 79.671875L503.32812 78.15625L502.32812 78.15625Q500.01562 78.15625 500.01562 79.515625Q500.01562 80.109375 500.40625 80.453125Q500.79688 80.78125 501.42188 80.78125ZM508.32812 81.75L507.0625 81.75L507.0625 71.25L508.32812 71.25L508.32812 81.75ZM515.3906 80.03125L517.2344 74.359375L518.5156 74.359375L515.875 81.75L514.90625 81.75L512.21875 74.359375L513.5156 74.359375L515.3906 80.03125ZM523.03125 81.890625Q521.5156 81.890625 520.5781 80.90625Q519.6406 79.90625 519.6406 78.25L519.6406 78.03125Q519.6406 76.921875 520.0625 76.0625Q520.4844 75.1875 521.2344 74.703125Q521.9844 74.21875 522.875 74.21875Q524.3125 74.21875 525.1094 75.171875Q525.90625 76.109375 525.90625 77.890625L525.90625 78.40625L520.90625 78.40625Q520.9219 79.5 521.53125 80.1875Q522.15625 80.859375 523.09375 80.859375Q523.7656 80.859375 524.21875 80.59375Q524.6875 80.3125 525.0469 79.859375L525.8125 80.453125Q524.8906 81.890625 523.03125 81.890625ZM522.875 75.25Q522.1094 75.25 521.5781 75.8125Q521.0625 76.375 520.9375 77.375L524.6406 77.375L524.6406 77.28125Q524.59375 76.3125 524.125 75.78125Q523.65625 75.25 522.875 75.25ZM530.53125 75.484375Q530.25 75.4375 529.90625 75.4375Q528.6719 75.4375 528.21875 76.5L528.21875 81.75L526.9531 81.75L526.9531 74.359375L528.1875 74.359375L528.2031 75.203125Q528.8281 74.21875 529.96875 74.21875Q530.34375 74.21875 530.53125 74.3125L530.53125 75.484375ZM536.2656 79.78125Q536.2656 79.28125 535.875 79.0Q535.4844 78.703125 534.53125 78.5Q533.5781 78.296875 533.0 78.015625Q532.4375 77.71875 532.1719 77.328125Q531.90625 76.9375 531.90625 76.390625Q531.90625 75.46875 532.6719 74.84375Q533.4375 74.21875 534.6406 74.21875Q535.8906 74.21875 536.6719 74.875Q537.4531 75.515625 537.4531 76.53125L536.1875 76.53125Q536.1875 76.0 535.75 75.625Q535.3125 75.25 534.6406 75.25Q533.9531 75.25 533.5625 75.5625Q533.1719 75.859375 533.1719 76.34375Q533.1719 76.796875 533.53125 77.03125Q533.8906 77.265625 534.8281 77.484375Q535.78125 77.6875 536.375 77.984375Q536.96875 78.28125 537.25 78.703125Q537.53125 79.109375 537.53125 79.703125Q537.53125 80.6875 536.7344 81.296875Q535.9375 81.890625 534.6719 81.890625Q533.7969 81.890625 533.1094 81.578125Q532.4219 81.25 532.03125 80.6875Q531.65625 80.125 531.65625 79.46875L532.9219 79.46875Q532.9531 80.109375 533.4219 80.484375Q533.90625 80.859375 534.6719 80.859375Q535.3906 80.859375 535.8281 80.5625Q536.2656 80.265625 536.2656 79.78125ZM540.3281 81.75L539.0625 81.75L539.0625 74.359375L540.3281 74.359375L540.3281 81.75ZM538.96875 72.390625Q538.96875 72.078125 539.15625 71.875Q539.34375 71.65625 539.7031 71.65625Q540.0781 71.65625 540.2656 71.875Q540.46875 72.078125 540.46875 72.390625Q540.46875 72.703125 540.2656 72.90625Q540.0781 73.109375 539.7031 73.109375Q539.34375 73.109375 539.15625 72.90625Q538.96875 72.703125 538.96875 72.390625ZM541.625 77.984375Q541.625 76.890625 542.0469 76.03125Q542.4844 75.15625 543.2344 74.6875Q544.0 74.21875 544.9844 74.21875Q546.4844 74.21875 547.4219 75.265625Q548.3594 76.3125 548.3594 78.046875L548.3594 78.140625Q548.3594 79.21875 547.9375 80.078125Q547.53125 80.921875 546.75 81.40625Q545.9844 81.890625 545.0 81.890625Q543.4844 81.890625 542.5469 80.84375Q541.625 79.796875 541.625 78.078125L541.625 77.984375ZM542.8906 78.140625Q542.8906 79.359375 543.4531 80.109375Q544.03125 80.859375 545.0 80.859375Q545.9531 80.859375 546.5156 80.109375Q547.09375 79.34375 547.09375 77.984375Q547.09375 76.765625 546.5156 76.015625Q545.9375 75.25 544.9844 75.25Q544.0469 75.25 543.46875 76.0Q542.8906 76.75 542.8906 78.140625ZM551.15625 74.359375L551.1875 75.28125Q552.0469 74.21875 553.40625 74.21875Q555.75 74.21875 555.78125 76.859375L555.78125 81.75L554.5156 81.75L554.5156 76.859375Q554.5 76.0625 554.1406 75.6875Q553.78125 75.296875 553.03125 75.296875Q552.40625 75.296875 551.9375 75.625Q551.4844 75.953125 551.21875 76.484375L551.21875 81.75L549.9531 81.75L549.9531 74.359375L551.15625 74.359375Z" fill-rule="nonzero"/><path fill="#757575" d="M483.8125 51.359375L482.6875 52.53125L482.6875 56.25L480.875 56.25L480.875 41.25L482.6875 41.25L482.6875 50.328125L483.65625 49.15625L486.9375 45.6875L489.14062 45.6875L485.03125 50.09375L489.625 56.25L487.5 56.25L483.8125 51.359375ZM504.125 48.296875L495.98438 48.296875L495.98438 46.734375L504.125 46.734375L504.125 48.296875ZM504.125 52.359375L495.98438 52.359375L495.98438 50.796875L504.125 50.796875L504.125 52.359375ZM521.0 56.25L511.6875 56.25L511.6875 54.953125L516.6094 49.484375Q517.7031 48.234375 518.1094 47.46875Q518.53125 46.6875 518.53125 45.859375Q518.53125 44.75 517.8594 44.03125Q517.1875 43.3125 516.0625 43.3125Q514.7031 43.3125 513.9531 44.09375Q513.21875 44.859375 513.21875 46.21875L511.40625 46.21875Q511.40625 44.25 512.6719 43.046875Q513.9375 41.828125 516.0625 41.828125Q518.0469 41.828125 519.1875 42.875Q520.34375 43.921875 520.34375 45.640625Q520.34375 47.75 517.6719 50.640625L513.8594 54.78125L521.0 54.78125L521.0 56.25Z" fill-rule="nonzero"/></svg>